<?xml version="1.0" encoding="UTF-8"?>
<svg version="1.1" xmlns="http://www.w3.org/2000/svg" width="1024" height="1024">
<path d="M0 0 C337.92 0 675.84 0 1024 0 C1024 337.92 1024 675.84 1024 1024 C686.08 1024 348.16 1024 0 1024 C0 686.08 0 348.16 0 0 Z " fill="#030911" transform="translate(0,0)"/>
<path d="M0 0 C0.66 0 1.32 0 2 0 C2.34853027 0.72735352 2.69706055 1.45470703 3.05615234 2.20410156 C13.37314508 23.694269 23.97521242 45.03600962 34.68505859 66.33300781 C40.07695935 77.06758959 45.38904008 87.82922329 50.52365112 98.68939209 C53.90319994 105.82956492 57.40778659 112.9000803 60.96777344 119.95166016 C62.87368098 123.7337236 64.76362228 127.52377892 66.65625 131.3125 C67.45957015 132.91930347 68.2629559 134.52607414 69.06640625 136.1328125 C70.68880208 139.37760417 72.31119792 142.62239583 73.93359375 145.8671875 C74.33218094 146.66432159 74.73076813 147.46145569 75.14143372 148.28274536 C75.94355569 149.88707074 76.74554728 151.49146131 77.54740906 153.09591675 C79.34997256 156.70234275 81.15384271 160.30807922 82.96411133 163.91064453 C88.9613063 175.85494468 94.8220672 187.86558476 100.6875 199.875 C102.22255914 203.01725953 103.75784068 206.15940974 105.2936554 209.30130005 C106.24023227 211.23782214 107.18638084 213.17455367 108.13200378 215.11154175 C108.56628189 216.00011871 109.00056 216.88869568 109.44799805 217.80419922 C109.86644989 218.66211563 110.28490173 219.52003204 110.71603394 220.40394592 C111.60550589 222.2023714 112.51122047 223.99282007 113.42971802 225.77659607 C113.8864389 226.6654097 114.34315979 227.55422333 114.8137207 228.4699707 C115.22797806 229.26474319 115.64223541 230.05951569 116.06904602 230.87837219 C117 233 117 233 117.21875 236.17578125 C115.43451829 240.31039511 112.66224901 243.03504124 109.5 246.1875 C108.20570758 247.52219832 106.91404132 248.85944826 105.625 250.19921875 C104.99722656 250.84938965 104.36945313 251.49956055 103.72265625 252.16943359 C101.51635133 254.51394526 99.49768831 256.9764051 97.5 259.5 C93.31930078 264.74147364 88.77288394 269.5708296 84.16772461 274.43554688 C79.85631429 279.01469935 75.86654877 283.74078608 71.94140625 288.65625 C69.71478202 291.34432754 67.30038947 293.72708385 64.79296875 296.1484375 C62.64659214 298.36495714 60.74374309 300.71874739 58.8125 303.125 C53.51921593 309.70955233 47.78147572 315.84678811 42 322 C39.03674056 320.64891034 36.79214835 319.11293352 34.375 316.9375 C33.67890625 316.31488281 32.9828125 315.69226563 32.265625 315.05078125 C31.51796875 314.37402344 30.7703125 313.69726562 30 313 C29.21109375 312.29230469 28.4221875 311.58460938 27.609375 310.85546875 C24.20734247 307.80112823 20.81506648 304.73602973 17.421875 301.671875 C12.31921259 297.07008743 7.18727319 292.50626246 2 288 C-1.01388073 289.35058114 -3.1034677 290.85604775 -5.42578125 293.1953125 C-6.05806641 293.82953125 -6.69035156 294.46375 -7.34179688 295.1171875 C-7.99212891 295.77976562 -8.64246094 296.44234375 -9.3125 297.125 C-9.95123047 297.764375 -10.58996094 298.40375 -11.24804688 299.0625 C-14.38823553 302.2313226 -17.42110878 305.44826117 -20.32421875 308.8359375 C-25.62074183 314.9652942 -31.49696339 320.53943916 -37.26171875 326.22265625 C-41.10651824 330.03416743 -44.91942767 333.81970826 -48.4375 337.9375 C-53.60280454 343.96877059 -59.38105784 349.43627506 -65.02978516 355.00927734 C-70.27728845 360.19276615 -75.42584054 365.38581276 -80.22070312 370.99804688 C-84.75622679 376.10113332 -89.75556376 380.78906281 -94.6171875 385.578125 C-99.11588563 390.03580156 -103.47334466 394.53614353 -107.58227539 399.35742188 C-109.2928211 401.33926302 -111.11189595 403.18742011 -113 405 C-117.34923698 403.34264513 -120.09133403 400.08844204 -123.25 396.8125 C-128.49597254 391.45590768 -128.49597254 391.45590768 -134.0625 386.4375 C-139.70926735 381.65292723 -144.80990641 376.267945 -150 371 C-155.80318362 375.01758866 -160.65475186 379.52588612 -165.57519531 384.54394531 C-168.29799605 387.31478539 -171.03409577 389.98516037 -174 392.5 C-178.08795909 395.97476522 -181.80672837 399.77950812 -185.57373047 403.59326172 C-188.91599579 406.9609033 -192.36075299 410.12501784 -195.9765625 413.19921875 C-200.17277106 416.93368235 -204.06584512 420.99328899 -208 425 C-208.33 424.34 -208.66 423.68 -209 423 C-207.97943115 420.48457336 -207.97943115 420.48457336 -206.35058594 417.26293945 C-206.05628693 416.67536362 -205.76198792 416.08778778 -205.45877075 415.48240662 C-204.4747044 413.52221019 -203.47947763 411.56789506 -202.484375 409.61328125 C-201.79108851 408.23672652 -201.09857604 406.85978172 -200.40679932 405.48246765 C-198.57001843 401.82992889 -196.72409445 398.18209039 -194.87585449 394.53533936 C-191.96611529 388.79047369 -189.06967855 383.03887812 -186.17308044 377.28737831 C-185.46380574 375.8793735 -184.7541396 374.4715658 -184.04408264 373.06395531 C-179.04211234 363.14578475 -174.14138431 353.18694281 -169.41009521 343.13594055 C-166.62691119 337.23306796 -163.66606858 331.49061553 -160.4375 325.81640625 C-159.29484328 323.57766849 -158.4153634 321.49233146 -157.5703125 319.140625 C-156.03730573 314.92782349 -154.02719515 311.11193264 -151.875 307.1875 C-146.82814286 297.7895698 -142.14834665 288.22398869 -137.5 278.625 C-137.12928375 277.85997162 -136.7585675 277.09494324 -136.37661743 276.30673218 C-132.05975502 267.39235541 -127.78742184 258.45835121 -123.5625 249.5 C-120.64999639 243.32944151 -117.59686694 237.26450273 -114.375 231.25 C-109.66113153 222.44618557 -105.28465945 213.4886552 -100.9375 204.5 C-100.58812378 203.77774231 -100.23874756 203.05548462 -99.87878418 202.31134033 C-96.31872607 194.94472676 -92.77339512 187.57184915 -89.31518555 180.15673828 C-88.7260437 178.90352783 -88.7260437 178.90352783 -88.125 177.625 C-87.83118439 176.9978862 -87.53736877 176.3707724 -87.23464966 175.72465515 C-84.74863199 170.46485492 -82.0860602 165.32129944 -79.34375 160.19140625 C-74.12125695 150.34192499 -69.22040556 140.35153745 -64.375 130.3125 C-62.78009975 127.01622178 -61.18344382 123.72079718 -59.5859375 120.42578125 C-59.19758728 119.62447784 -58.80923706 118.82317444 -58.40911865 117.99758911 C-54.67158208 110.29864133 -50.84467843 102.64585545 -47 95 C-41.06355693 83.18545912 -35.22807034 71.3241859 -29.4375 59.4375 C-28.56124071 57.64076689 -27.68493804 55.84405494 -26.80859375 54.04736328 C-22.69055561 45.60068776 -18.58306917 37.14911818 -14.50390625 28.68359375 C-14.15879501 27.96789719 -13.81368378 27.25220062 -13.45811462 26.51481628 C-11.85852107 23.19698336 -10.26155476 19.87793871 -8.66967773 16.55639648 C-5.95513755 10.91808573 -3.21344897 5.37150048 0 0 Z " fill="#ADAEAE" transform="translate(479,208)"/>
<path d="M0 0 C-3.05030999 16.18524531 -6.80390678 32.18695251 -10.64794922 48.19885254 C-11.60628268 52.19378869 -12.56003848 56.18981981 -13.51392937 60.18581867 C-14.25497835 63.29018384 -14.99706338 66.39429019 -15.7414856 69.49784851 C-17.21565732 75.65423074 -18.64775123 81.81565549 -20 88 C-23.90285349 86.16639525 -26.98922345 83.6599216 -30.25 80.875 C-31.08144531 80.17310547 -31.08144531 80.17310547 -31.9296875 79.45703125 C-33.28947326 78.30824672 -34.64515165 77.15460347 -36 76 C-39.51682116 77.47580888 -41.50214476 79.39260499 -44 82.25 C-44.78375 83.14203125 -45.5675 84.0340625 -46.375 84.953125 C-49.78119572 88.8957705 -53.17028941 92.85328175 -56.55004883 96.81860352 C-59.54337774 100.32521082 -62.58228033 103.77880336 -65.6875 107.1875 C-68.69814479 110.5008308 -71.56565178 113.88941929 -74.375 117.375 C-78.05636689 121.92860712 -81.92774473 126.23582516 -85.91357422 130.51904297 C-88.90412641 133.75176204 -91.73771685 137.06687666 -94.5 140.5 C-98.1356405 145.01858176 -101.96836402 149.27983329 -105.91625977 153.52172852 C-108.88715628 156.7329905 -111.69961077 160.02627815 -114.4375 163.4375 C-118.79741306 168.85412448 -123.47475879 173.91938296 -128.21484375 179 C-130.97346339 181.95876022 -133.64611326 184.98395085 -136.29296875 188.04296875 C-138.33633431 190.3855915 -140.41680859 192.69273422 -142.5 195 C-145.18983431 197.98062721 -147.86310364 200.97245233 -150.5 204 C-155.37143203 209.58979989 -160.3589515 215.07534898 -165.328125 220.578125 C-168.74305638 224.36474959 -172.14986526 228.15583617 -175.5 232 C-179.6108312 236.71703672 -183.8077966 241.35534969 -188 246 C-189.4793123 247.64570244 -190.95847946 249.29153535 -192.4375 250.9375 C-195.65322422 254.51239761 -198.88539909 258.07173123 -202.125 261.625 C-204.99978153 264.77927418 -207.84035746 267.95351741 -210.625 271.1875 C-214.21631192 275.32736554 -218.08075802 279.17237666 -222 283 C-225.63177507 280.95953274 -228.58268448 278.71381615 -231.625 275.875 C-235.14370187 272.64822007 -238.71933669 269.55724384 -242.4375 266.5625 C-247.29288621 262.6368686 -251.91356416 258.50548755 -256.4921875 254.26171875 C-258.92279874 252.06962544 -261.42369248 250.01764586 -264 248 C-268.07710409 249.62013003 -270.80913562 252.537381 -273.83203125 255.6015625 C-274.38686691 256.15685638 -274.94170258 256.71215027 -275.51335144 257.28427124 C-276.68648789 258.46042442 -277.85719729 259.63900276 -279.02563477 260.81982422 C-280.79075734 262.60303454 -282.56358023 264.37828024 -284.33789062 266.15234375 C-289.56193056 271.39325178 -294.69359295 276.6500717 -299.4987793 282.28271484 C-302.02059641 285.16748661 -304.76084636 287.82365393 -307.5 290.5 C-311.60043002 294.54926912 -315.53149625 298.64630451 -319.26171875 303.04296875 C-321.41260639 305.46452989 -323.69611515 307.72374795 -326 310 C-328.86926241 312.83489999 -331.64486711 315.67120659 -334.25 318.75 C-337.63029404 322.70977302 -341.3022226 326.34068103 -345 330 C-349.18578269 334.14242917 -353.22302896 338.30266507 -357.0234375 342.8046875 C-360.49707735 346.6627618 -364.23169649 350.27041852 -367.93945312 353.90234375 C-371.53135348 357.44230339 -374.83585034 361.07167834 -378 365 C-380.81351786 363.71104283 -382.9325707 362.33731495 -385.171875 360.20703125 C-385.74969727 359.66272461 -386.32751953 359.11841797 -386.92285156 358.55761719 C-387.52581055 357.98172852 -388.12876953 357.40583984 -388.75 356.8125 C-390.00963593 355.62547304 -391.2700465 354.43926755 -392.53125 353.25390625 C-393.43423828 352.4033667 -393.43423828 352.4033667 -394.35546875 351.53564453 C-396.86969672 349.18788711 -399.45617707 346.93115129 -402.06640625 344.69140625 C-403.57621537 343.37070454 -405.05765013 342.01754602 -406.52734375 340.65234375 C-407.40519531 339.83894531 -408.28304687 339.02554687 -409.1875 338.1875 C-409.98542969 337.43855469 -410.78335938 336.68960937 -411.60546875 335.91796875 C-414.02523336 333.97978861 -416.12082896 333.07815639 -419 332 C-419.65599056 332.65599056 -420.31198112 333.31198112 -420.98785019 333.98785019 C-464.32523346 377.32523346 -507.66261673 420.66261673 -551 464 C-549.47530506 458.78307084 -547.14517972 454.30662424 -544.5625 449.5625 C-539.21393563 439.56576688 -534.33319883 429.37562486 -529.48583984 419.12890625 C-526.84809719 413.5743039 -524.17212275 408.03812316 -521.5 402.5 C-518.28634278 395.83813293 -515.07791117 389.17417187 -511.90625 382.4921875 C-511.41576172 381.46029297 -510.92527344 380.42839844 -510.41992188 379.36523438 C-509.50725953 377.44324532 -508.59690789 375.52015638 -507.68945312 373.59570312 C-506.48108415 371.05266139 -505.24703674 368.52427238 -504 366 C-503.63374512 365.23276611 -503.26749023 364.46553223 -502.89013672 363.67504883 C-499.6636866 357.33125228 -495.2503165 352.81454583 -490.125 347.9375 C-483.75297819 341.82881354 -483.75297819 341.82881354 -477.8046875 335.31640625 C-471.68850831 328.17909873 -464.78389053 321.73207944 -458.10644531 315.12695312 C-449.13344556 306.27218849 -449.13344556 306.27218849 -440.69091797 296.91796875 C-437.01930842 292.75334782 -433.00610432 288.90461812 -429.0625 285 C-428.18787109 284.12988281 -427.31324219 283.25976562 -426.41210938 282.36328125 C-424.27702551 280.23986451 -422.13962795 278.11883622 -420 276 C-416.13668481 277.80559044 -413.32097799 280.27472248 -410.25 283.1875 C-409.41867554 283.96577148 -409.41867554 283.96577148 -408.57055664 284.75976562 C-407.36240917 285.89174764 -406.15619197 287.02579245 -404.95166016 288.16162109 C-402.88343752 290.10979678 -400.80768632 292.04970098 -398.73046875 293.98828125 C-395.96304495 296.57360482 -393.195816 299.15911861 -390.43359375 301.75 C-389.83015137 302.31203125 -389.22670898 302.8740625 -388.60498047 303.453125 C-387.26936397 304.74038788 -386.01524102 306.11154453 -384.78515625 307.5 C-383.15329147 309.22728307 -383.15329147 309.22728307 -381.17089844 308.85571289 C-378.2650291 307.71029319 -376.67404 306.0287066 -374.48046875 303.80859375 C-373.19366211 302.51405273 -373.19366211 302.51405273 -371.88085938 301.19335938 C-370.99205078 300.28392578 -370.10324219 299.37449219 -369.1875 298.4375 C-368.31029297 297.55513672 -367.43308594 296.67277344 -366.52929688 295.76367188 C-362.06061254 291.24151039 -357.75169691 286.6398657 -353.60668945 281.82055664 C-350.54508546 278.3514211 -347.2044315 275.16296115 -343.89453125 271.93359375 C-341.00075961 269.08186237 -338.24585314 266.17283573 -335.59375 263.09375 C-331.30654835 258.13237046 -326.63915147 253.58859301 -321.9609375 249 C-318.75546656 245.83165807 -315.64709804 242.64628822 -312.71875 239.21875 C-307.48728254 233.14502814 -301.67263349 227.61669649 -295.97021484 221.99072266 C-290.65177441 216.73716208 -285.41997283 211.47576688 -280.56005859 205.78710938 C-278.02984734 202.88865142 -275.30409596 200.19687733 -272.5625 197.5 C-272.02173828 196.96375 -271.48097656 196.4275 -270.92382812 195.875 C-269.61823383 194.58095964 -268.30947004 193.29011826 -267 192 C-262.84790469 193.70788157 -259.71241975 196.64423379 -256.375 199.5625 C-255.75326904 200.10044189 -255.13153809 200.63838379 -254.4909668 201.19262695 C-250.89278605 204.31569008 -247.33904549 207.48360795 -243.8125 210.6875 C-234.5968633 219.32322116 -234.5968633 219.32322116 -224 226 C-213.75509346 215.16843061 -203.60095545 204.29556639 -193.8046875 193.0546875 C-189.50737816 188.1620799 -185.13305547 183.33602787 -180.7421875 178.52734375 C-176.84070202 174.23842853 -173.07135058 169.8939394 -169.4375 165.375 C-166.763538 162.06614581 -164.05276743 158.96209117 -161 156 C-158.00788911 153.09623884 -155.35950562 150.06499532 -152.75 146.8125 C-148.32955013 141.30605726 -143.59810694 136.15932268 -138.78515625 131 C-136.02333659 128.0378076 -133.34697566 125.0097866 -130.69921875 121.9453125 C-128.70593572 119.6633471 -126.66506973 117.42771426 -124.625 115.1875 C-121.53363199 111.76770672 -118.57540968 108.28041476 -115.6875 104.6875 C-111.79614512 99.87254256 -107.66870856 95.34912829 -103.43994141 90.83447266 C-100.34263774 87.50897767 -97.40400241 84.11307457 -94.5625 80.5625 C-90.52384961 75.52520152 -86.17903241 70.84734419 -81.75537109 66.15209961 C-77.21803528 61.30720484 -73.02740089 56.28064044 -69 51 C-70.55466197 46.91667098 -73.25087844 44.91791007 -76.625 42.25 C-77.62789062 41.45078125 -78.63078125 40.6515625 -79.6640625 39.828125 C-80.43492187 39.22484375 -81.20578125 38.6215625 -82 38 C-79.30927158 34.69368058 -75.76157386 33.41727663 -71.9375 31.8125 C-62.52439991 27.75084745 -53.26451176 23.38642271 -44 19 C-34.11330468 14.32356163 -24.22863415 9.66010553 -14.19921875 5.29492188 C-11.3232185 4.0430512 -8.51843858 2.74942677 -5.734375 1.30078125 C-3 0 -3 0 0 0 Z " fill="#008950" transform="translate(746,326)"/>
<path d="M0 0 C0.33 0 0.66 0 1 0 C0.98763967 1.19156015 0.97527933 2.38312031 0.96254444 3.61078835 C0.67157249 32.07985475 0.48181653 60.54845594 0.41194101 89.01889781 C0.40320086 92.54498997 0.39363012 96.07107941 0.38354492 99.59716797 C0.38155164 100.29896649 0.37955836 101.00076501 0.37750467 101.72383015 C0.34352149 112.99594309 0.24270062 124.26647312 0.11590228 135.53788085 C-0.01327203 147.15703588 -0.06766887 158.77492086 -0.05671436 170.39479387 C-0.0536669 176.90004777 -0.0822117 183.40125133 -0.194067 189.9056282 C-0.72827525 222.53465282 2.32809489 246.47567299 19.95576262 274.30621862 C22.30690632 278.11983754 24.29348754 282.129591 26.3125 286.125 C27.05290182 287.52117309 27.79598454 288.91593128 28.54296875 290.30859375 C31.84085526 296.54847974 34.97507485 302.87207643 38.125 309.1875 C38.43129333 309.80152679 38.73758667 310.41555359 39.05316162 311.04818726 C41.75718506 316.47140913 44.45478508 321.89780702 47.14453125 327.328125 C50.29099637 333.66618383 53.49821985 339.96592553 56.78125 346.234375 C57.4702238 347.55341961 58.15910636 348.87251189 58.84790039 350.19165039 C60.22021203 352.81963539 61.60087901 355.44300192 62.98608398 358.06420898 C63.62514939 359.28613237 64.26391544 360.50821237 64.90234375 361.73046875 C65.76073853 363.36085083 65.76073853 363.36085083 66.63647461 365.02416992 C68 368 68 368 69 373 C26.43 373 -16.14 373 -60 373 C-60.28681853 334.38302511 -60.52676191 295.76705811 -60.66384928 257.14932217 C-60.68010765 252.58587436 -60.69693392 248.02242881 -60.71411133 243.45898438 C-60.71752136 242.55051922 -60.7209314 241.64205406 -60.72444477 240.70605965 C-60.78094803 226.01351718 -60.88341079 211.32163877 -61.00298635 196.6294897 C-61.12473701 181.543798 -61.19680181 166.45845307 -61.22315043 151.37229025 C-61.24095183 142.06961543 -61.29708162 132.76881773 -61.40291407 123.46672107 C-61.47185727 117.08001851 -61.49235201 110.69428025 -61.47551791 104.30723296 C-61.46722346 100.62632883 -61.47954384 96.94869346 -61.54967117 93.2683773 C-61.99078481 68.93217422 -61.99078481 68.93217422 -55.46889752 61.26850951 C-53.28772097 59.09459717 -51.00749606 57.15478273 -48.56317937 55.2844193 C-46.14792776 53.29987687 -44.33169784 50.90846252 -42.4375 48.4375 C-38.12693239 43.05524431 -33.48573156 38.03837732 -28.78515625 33 C-26.02653661 30.04123978 -23.35388674 27.01604915 -20.70703125 23.95703125 C-18.66366569 21.6144085 -16.58319141 19.30726578 -14.5 17 C-7.67402573 9.60229381 -7.67402573 9.60229381 -1.3671875 1.7734375 C-0.69042969 0.89558594 -0.69042969 0.89558594 0 0 Z " fill="#00894F" transform="translate(710,420)"/>
<path d="M0 0 C0.33 0 0.66 0 1 0 C1 91.08 1 182.16 1 276 C-19.46 276 -39.92 276 -61 276 C-61.15802521 249.0183236 -61.28696785 222.03702195 -61.3626852 195.05500031 C-61.3987768 182.5267327 -61.44798115 169.99877306 -61.52807617 157.47070312 C-61.5978553 146.55098754 -61.6430098 135.63149498 -61.65861946 124.71156263 C-61.66774387 118.92962502 -61.68918131 113.14832548 -61.7401104 107.36659241 C-61.7876723 101.92294484 -61.80227086 96.48019731 -61.79175377 91.03636169 C-61.79367737 89.04010118 -61.80757328 87.04381015 -61.83443832 85.04772949 C-62.05161885 68.07673608 -62.05161885 68.07673608 -57.62806702 62.94519043 C-56.44856557 61.92778611 -55.24069276 60.94181563 -54 60 C-53.03199582 58.97697343 -52.08284036 57.93568174 -51.15625 56.875 C-50.2796875 55.92625 -49.403125 54.9775 -48.5 54 C-44.85485586 50.04230863 -41.26084188 46.04820826 -37.734375 41.984375 C-33.44320048 37.0746528 -29.04197892 32.26125182 -24.671875 27.421875 C-21.29614978 23.67872391 -17.92862565 19.93203528 -14.625 16.125 C-11.50102837 12.54422119 -8.32279278 9.01479316 -5.125 5.5 C-4.63596191 4.95875488 -4.14692383 4.41750977 -3.64306641 3.85986328 C-2.44969329 2.55375699 -1.22743265 1.27415154 0 0 Z " fill="#00874F" transform="translate(626,517)"/>
<path d="M0 0 C3.85108365 0.25944142 5.85286218 2.42874566 8.5625 5 C12.09685096 8.28041665 15.67877551 11.41651942 19.4375 14.4375 C24.27941483 18.35486249 28.88925445 22.47625481 33.47265625 26.69140625 C36.58789598 29.53701163 39.77662843 32.27804178 43 35 C45.49361571 33.79618552 47.68143083 32.54571278 50 31 C50.0233268 52.88720664 50.0409781 74.77441124 50.05181217 96.66162777 C50.0569756 106.823495 50.06401917 116.98535452 50.07543945 127.1472168 C50.08538488 136.00093626 50.09185309 144.85465014 50.09408849 153.70837504 C50.09539584 158.39937535 50.09848321 163.09035969 50.10573006 167.7813549 C50.11248805 172.19139252 50.11461742 176.60140751 50.11310768 181.01144981 C50.11338411 182.63487623 50.11539054 184.25830336 50.11920547 185.88172531 C50.12413928 188.0884505 50.12299947 190.29508883 50.12025452 192.5018158 C50.12117631 193.73978377 50.1220981 194.97775175 50.12304783 196.25323391 C50 199 50 199 49 200 C46.85256451 200.09425595 44.70198974 200.11742648 42.55249023 200.11352539 C41.54277664 200.11374443 41.54277664 200.11374443 40.51266479 200.1139679 C38.27794216 200.11326878 36.0433019 200.10547652 33.80859375 200.09765625 C32.26302638 200.09579206 30.71745843 200.09436816 29.17189026 200.09336853 C25.09642923 200.0895434 21.02100363 200.07971317 16.94555664 200.06866455 C12.78988118 200.05845032 8.63420001 200.05387089 4.47851562 200.04882812 C-3.68100587 200.03809089 -11.84049853 200.02101454 -20 200 C-21.24148229 169.01917643 -21.54180519 138.03287765 -21.8269043 107.03114319 C-21.91818291 97.37324663 -22.04882957 87.71749487 -22.23798275 78.06100559 C-22.36468191 71.53619161 -22.46098972 65.01141389 -22.53388309 58.48577785 C-22.57794342 54.66531508 -22.63770668 50.84660471 -22.73635864 47.02713013 C-22.8279285 43.4690982 -22.8767979 39.91299829 -22.89340019 36.35385132 C-22.91329983 34.45180336 -22.97834809 32.55039164 -23.04518127 30.64941406 C-23.03095299 24.13635162 -22.36823171 20.62312816 -17.70849609 15.89819336 C-16.16579807 14.56708721 -14.59660868 13.26593898 -13 12 C-11.5796742 10.75415929 -10.16237478 9.50484737 -8.75 8.25 C-8.1003125 7.69828125 -7.450625 7.1465625 -6.78125 6.578125 C-5.14723336 5.13044359 -3.70941887 3.61959899 -2.25 2 C-1.5075 1.34 -0.765 0.68 0 0 Z " fill="#00884F" transform="translate(481,593)"/>
<path d="M0 0 C0 48.51 0 97.02 0 147 C-24.42 147 -48.84 147 -74 147 C-74 116.97 -74 86.94 -74 56 C-71.36 57.98 -68.72 59.96 -66 62 C-62.2205437 62 -61.28692451 60.63587711 -58.70324707 58.06539917 C-58.13585815 57.48565338 -57.56846924 56.90590759 -56.98388672 56.30859375 C-56.38033356 55.70387238 -55.7767804 55.099151 -55.15493774 54.47610474 C-53.15614431 52.47010725 -51.16807253 50.45381047 -49.1796875 48.4375 C-47.79704162 47.04672243 -46.41366 45.65667592 -45.02957153 44.26733398 C-41.38371578 40.60433306 -37.74651612 36.93286033 -34.1114502 33.25915527 C-28.28738361 27.37596111 -22.45062112 21.50536818 -16.6133461 15.63528442 C-14.56925019 13.57716261 -12.52897791 11.51530825 -10.48922729 9.45288086 C-9.24534029 8.19897594 -8.00137683 6.94514686 -6.75732422 5.69140625 C-6.18588684 5.11166046 -5.61444946 4.53191467 -5.0256958 3.93460083 C-1.11342606 0 -1.11342606 0 0 0 Z " fill="#008950" transform="translate(432,646)"/>
<path d="M0 0 C0 37.62 0 75.24 0 114 C-38.28 114 -76.56 114 -116 114 C-114.33551321 110.67102642 -113.40411131 109.15191312 -110.875 106.6875 C-110.33617187 106.15511719 -109.79734375 105.62273437 -109.2421875 105.07421875 C-107.30854224 103.28542844 -105.33860898 101.56650988 -103.34228516 99.84887695 C-99.14427152 96.17962302 -95.19752329 92.30960551 -91.28125 88.34375 C-90.57907349 87.63778687 -89.87689697 86.93182373 -89.15344238 86.20446777 C-86.93315397 83.97208642 -84.71616045 81.73647889 -82.5 79.5 C-79.57590521 76.54909622 -76.64836943 73.60166797 -73.71875 70.65625 C-73.063302 69.99250366 -72.407854 69.32875732 -71.73254395 68.64489746 C-68.68782387 65.58432047 -65.6138527 62.63044657 -62.32763672 59.82983398 C-56.89137008 55.13513063 -51.89489048 49.98934151 -46.84431839 44.88891792 C-45.00605516 43.03308341 -43.1641146 41.18097043 -41.32113647 39.32981873 C-36.08785823 34.07222521 -30.86045852 28.80881405 -25.63720703 23.54125977 C-22.4291577 20.30651122 -19.21632068 17.07658348 -16.00043869 13.84962273 C-14.77768586 12.62065066 -13.55683523 11.38978303 -12.3379097 10.15701485 C-10.64332908 8.44333133 -8.94278188 6.73579203 -7.24072266 5.02954102 C-6.73684021 4.51689697 -6.23295776 4.00425293 -5.71380615 3.47607422 C-2.22789975 0 -2.22789975 0 0 0 Z " fill="#008950" transform="translate(328,679)"/>
<path d="M0 0 C0.33 0.66 0.66 1.32 1 2 C0.10333658 4.24310013 -0.89146683 6.44754321 -1.9375 8.625 C-2.50339844 9.81351563 -3.06929688 11.00203125 -3.65234375 12.2265625 C-4.09707031 13.14179687 -4.54179687 14.05703125 -5 15 C-4.2575 14.38125 -3.515 13.7625 -2.75 13.125 C-0.51198812 11.39562719 1.43739987 10.13893339 4 9 C-0.69766975 14.66129431 -5.74723372 19.85228904 -11 25 C-11.33 24.34 -11.66 23.68 -12 23 C-11.11962891 20.76928711 -11.11962891 20.76928711 -9.7265625 18.02734375 C-8.9840625 16.55491211 -8.9840625 16.55491211 -8.2265625 15.05273438 C-7.69804687 14.02470703 -7.16953125 12.99667969 -6.625 11.9375 C-6.10421875 10.90560547 -5.5834375 9.87371094 -5.046875 8.81054688 C-1.16762976 1.16762976 -1.16762976 1.16762976 0 0 Z " fill="#B7B8B9" transform="translate(282,608)"/>
<path d="M0 0 C0 3 0 3 -2.13964844 5.48022461 C-3.12189275 6.46199292 -4.11242173 7.43551539 -5.109375 8.40234375 C-5.63259338 8.92131729 -6.15581177 9.44029083 -6.69488525 9.97499084 C-8.3730224 11.6363229 -10.06125391 13.28695975 -11.75 14.9375 C-12.87308042 16.0455305 -13.99548463 17.15424684 -15.1171875 18.26367188 C-17.18821233 20.31020447 -19.2630974 22.35264116 -21.34277344 24.39038086 C-23.57413092 26.58176088 -25.79298444 28.78415376 -28 31 C-26.55322092 25.69514336 -24.68567406 23.23673085 -20.52197266 19.76904297 C-15.78329714 15.79221239 -11.40714429 11.52507155 -7.0625 7.125 C-6.37865234 6.43664062 -5.69480469 5.74828125 -4.99023438 5.0390625 C-3.32448536 3.36166489 -1.6611378 1.68196209 0 0 Z " fill="#009658" transform="translate(223,759)"/>
<path d="M0 0 C0.33 0.66 0.66 1.32 1 2 C-3.12413408 6.78568459 -7.32081859 11.50592442 -11.5625 16.1875 C-12.00891846 16.68604492 -12.45533691 17.18458984 -12.9152832 17.69824219 C-16.05745947 21.14816032 -19.37264192 24.0863952 -23 27 C-21.3392515 22.85316133 -18.34032872 19.93268714 -15.3125 16.75 C-14.22705863 15.59320362 -13.1424205 14.43565303 -12.05859375 13.27734375 C-11.53378418 12.71772949 -11.00897461 12.15811523 -10.46826172 11.58154297 C-8.01564423 8.93969792 -5.65614215 6.21994623 -3.3046875 3.48828125 C-2.24884029 2.28385674 -1.13257488 1.13257488 0 0 Z " fill="#009455" transform="translate(592,555)"/>
<path d="M0 0 C0.66 0 1.32 0 2 0 C0.55676531 4.73789165 -1.37226733 8.98858151 -3.625 13.375 C-3.94984375 14.01566406 -4.2746875 14.65632812 -4.609375 15.31640625 C-5.40257407 16.87947501 -6.20077031 18.44000622 -7 20 C-7.99 20 -8.98 20 -10 20 C-8.81936519 16.00400527 -7.47314531 13.29752708 -5 10 C-4.06871874 8.26860386 -3.17305044 6.51761712 -2.3125 4.75 C-1.87550781 3.85796875 -1.43851562 2.9659375 -0.98828125 2.046875 C-0.66214844 1.37140625 -0.33601563 0.6959375 0 0 Z " fill="#121317" transform="translate(332,502)"/>
<path d="M0 0 C0.66 0.66 1.32 1.32 2 2 C-4.435 7.94 -4.435 7.94 -11 14 C-11.66 13.67 -12.32 13.34 -13 13 C-8.71 8.71 -4.42 4.42 0 0 Z " fill="#121417" transform="translate(389,588)"/>
<path d="M0 0 C0.66 0 1.32 0 2 0 C2.83819158 1.62249941 3.6704116 3.24808497 4.5 4.875 C4.9640625 5.77992188 5.428125 6.68484375 5.90625 7.6171875 C7 10 7 10 7 12 C6.34 12 5.68 12 5 12 C4.01 10.02 3.02 8.04 2 6 C0.68 6 -0.64 6 -2 6 C-1.34 4.02 -0.68 2.04 0 0 Z " fill="#B8B9BA" transform="translate(479,208)"/>
<path d="M0 0 C1.65 1.65 3.3 3.3 5 5 C4.2575 4.814375 3.515 4.62875 2.75 4.4375 C0.05009037 4.00796892 -1.44631077 4.14877026 -4 5 C-2.68 3.35 -1.36 1.7 0 0 Z M-6 5 C-5.34 5.33 -4.68 5.66 -4 6 C-5.32 7.32 -6.64 8.64 -8 10 C-8.66 9.67 -9.32 9.34 -10 9 C-8.68 7.68 -7.36 6.36 -6 5 Z " fill="#101114" transform="translate(328,578)"/>
<path d="M0 0 C1.1796875 1.609375 1.1796875 1.609375 2 4 C0.8828125 7.015625 0.8828125 7.015625 -0.875 10.25 C-1.44992187 11.32765625 -2.02484375 12.4053125 -2.6171875 13.515625 C-3.30167969 14.74539063 -3.30167969 14.74539063 -4 16 C-4.66 15.34 -5.32 14.68 -6 14 C-5.73445313 13.49210937 -5.46890625 12.98421875 -5.1953125 12.4609375 C-3.10022511 8.37781098 -1.32380814 4.4126938 0 0 Z " fill="#0E1014" transform="translate(357,449)"/>
<path d="M0 0 C0.66 0 1.32 0 2 0 C0.50829734 4.9723422 -1.60457417 9.41845739 -4 14 C-4.66 13.34 -5.32 12.68 -6 12 C-4.02 8.04 -2.04 4.08 0 0 Z " fill="#18191C" transform="translate(443,277)"/>
<path d="M0 0 C0.6875 1.6875 0.6875 1.6875 1 4 C-0.3125 6.75 -0.3125 6.75 -2 9 C-2.66 9 -3.32 9 -4 9 C-2.94124926 5.59687262 -1.99097846 2.98646769 0 0 Z " fill="#B4B5B6" transform="translate(476,214)"/>
</svg>
