<?xml version="1.0" encoding="UTF-8"?>
<svg version="1.1" xmlns="http://www.w3.org/2000/svg" width="1024" height="1024">
<path d="M0 0 C337.92 0 675.84 0 1024 0 C1024 337.92 1024 675.84 1024 1024 C686.08 1024 348.16 1024 0 1024 C0 686.08 0 348.16 0 0 Z " fill="#090C11" transform="translate(0,0)"/>
<path d="M0 0 C0.66 0 1.32 0 2 0 C2.26103516 0.55236328 2.52207031 1.10472656 2.79101562 1.67382812 C4.02554004 4.2834095 5.26277492 6.89169801 6.5 9.5 C6.90992188 10.36753906 7.31984375 11.23507812 7.7421875 12.12890625 C10.38294124 17.69049366 13.0937608 23.21266248 15.85546875 28.71484375 C19.91204252 36.79681137 23.87491161 44.92202174 27.8125 53.0625 C28.51455321 54.51221374 29.21662049 55.96192066 29.91870117 57.41162109 C36.13571752 70.25555514 42.29494283 83.12675163 48.43359375 96.00830078 C49.41219558 98.06122312 50.39135865 100.11387802 51.37109375 102.16625977 C52.31574798 104.1462896 53.25852553 106.12721612 54.19921875 108.10913086 C56.09942389 112.09935269 58.00693076 116.0722672 60.09375 119.96875 C60.6609375 121.0309375 61.228125 122.093125 61.8125 123.1875 C62.29332031 124.04730469 62.77414062 124.90710938 63.26953125 125.79296875 C64 128 64 128 63.22021484 129.93969727 C62.03093473 131.94776746 60.81189591 133.48487887 59.20703125 135.171875 C58.66288574 135.74953613 58.11874023 136.32719727 57.55810547 136.92236328 C56.98205566 137.5254834 56.40600586 138.12860352 55.8125 138.75 C54.62285939 140.01223105 53.4340492 141.27524532 52.24609375 142.5390625 C51.67874512 143.14137695 51.11139648 143.74369141 50.52685547 144.36425781 C48.21691293 146.83893243 46.00585516 149.39264586 43.796875 151.95703125 C40.99542599 155.14215697 38.09166518 158.23390643 35.20458984 161.34130859 C31.17772756 165.71543393 27.49841737 170.29985386 23.875 175.015625 C22.946875 175.99789062 22.946875 175.99789062 22 177 C19 177 19 177 17.421875 175.75 C16.87015625 175.1725 16.3184375 174.595 15.75 174 C15.1415625 173.36578125 14.533125 172.7315625 13.90625 172.078125 C11.41308356 169.36016486 8.97652256 166.59874131 6.578125 163.796875 C5.11118731 162.12659942 3.59043707 160.55211328 2 159 C-2.08128159 160.61692779 -4.80603933 163.54277406 -7.8125 166.625 C-8.61361206 167.43578003 -8.61361206 167.43578003 -9.4309082 168.26293945 C-12.85660822 171.7552084 -16.12234634 175.34815884 -19.29296875 179.07421875 C-21.98978013 182.11661695 -24.91534396 184.92325809 -27.80859375 187.77734375 C-30.42101068 190.4270144 -32.83302621 193.21172803 -35.25390625 196.03515625 C-37.72481389 198.81561832 -40.3816694 201.39118218 -43.03125 204 C-45.54455606 206.5531998 -47.85768588 209.25236417 -50.19140625 211.96875 C-53.30504645 215.46571091 -56.65139835 218.72967735 -60 222 C-75.33333333 209.33333333 -75.33333333 209.33333333 -78 204 C-81.12802845 203.66781808 -81.12802845 203.66781808 -83.25 206 C-86.1162419 209.02305757 -88.78250783 212.22691072 -91.44921875 215.42578125 C-91.96097656 215.94527344 -92.47273438 216.46476563 -93 217 C-93.66 217 -94.32 217 -95 217 C-95.24878906 217.5878125 -95.49757812 218.175625 -95.75390625 218.78125 C-97.17403805 221.30988593 -98.70130218 222.66773363 -100.9375 224.5 C-103.73240887 226.79861664 -105.92226472 229.02994581 -108 232 C-108.66 231.67 -109.32 231.34 -110 231 C-109.43410156 229.87980469 -108.86820312 228.75960937 -108.28515625 227.60546875 C-107.54416494 226.13286578 -106.80328534 224.66020659 -106.0625 223.1875 C-105.68931641 222.44951172 -105.31613281 221.71152344 -104.93164062 220.95117188 C-104.57392578 220.23896484 -104.21621094 219.52675781 -103.84765625 218.79296875 C-103.51773682 218.1383667 -103.18781738 217.48376465 -102.84790039 216.80932617 C-101.88166321 214.83869379 -101.88166321 214.83869379 -101 212 C-100.34 212 -99.68 212 -99 212 C-98.8772168 211.27304932 -98.75443359 210.54609863 -98.62792969 209.79711914 C-98.00890932 207.03968666 -97.14318643 204.80287438 -95.953125 202.24609375 C-95.31370972 200.86164063 -95.31370972 200.86164063 -94.66137695 199.44921875 C-94.19562256 198.45535156 -93.72986816 197.46148438 -93.25 196.4375 C-92.7655542 195.39335938 -92.2811084 194.34921875 -91.78198242 193.2734375 C-90.73817105 191.02487102 -89.69210923 188.77734813 -88.64404297 186.53076172 C-86.97335234 182.94277125 -85.31511827 179.34916546 -83.66015625 175.75390625 C-74.06438365 154.93951571 -74.06438365 154.93951571 -69.16064453 145.28735352 C-65.74440088 138.54883487 -62.46813458 131.74272662 -59.1875 124.9375 C-58.88303955 124.306091 -58.5785791 123.67468201 -58.26489258 123.0241394 C-53.90765838 113.98483753 -49.57186691 104.93536088 -45.25244141 95.87792969 C-42.65665742 90.44156526 -40.04067624 85.01539358 -37.40625 79.59765625 C-36.12470904 76.96107879 -34.84341125 74.32438345 -33.5625 71.6875 C-33.08417725 70.70283249 -33.08417725 70.70283249 -32.59619141 69.69827271 C-27.62879368 59.46245621 -22.81137695 49.16744562 -18.07983398 38.82006836 C-15.07569883 32.26872111 -11.94831615 25.8019853 -8.67211914 19.38305664 C-5.46519452 13.05227059 -2.7051126 6.55784872 0 0 Z " fill="#B1B3B4" transform="translate(225,340)"/>
<path d="M0 0 C66.92515593 0 66.92515593 0 81.0625 12.87890625 C90.12097742 22.54258367 92.4975733 32.68894897 92.27734375 45.5234375 C91.74184147 58.02914751 86.59802668 66.74711901 77.8125 75.1875 C69.25516745 82.53266402 58.53782253 86.28544436 47.31640625 86.1953125 C46.03451416 86.19031738 44.75262207 86.18532227 43.43188477 86.18017578 C41.82498779 86.16196777 40.21809082 86.14375977 38.5625 86.125 C33.426875 86.08375 28.29125 86.0425 23 86 C23 101.84 23 117.68 23 134 C15.41 134 7.82 134 0 134 C0 89.78 0 45.56 0 0 Z " fill="#017B4F" transform="translate(586,398)"/>
<path d="M0 0 C7.92 0 15.84 0 24 0 C28.0170901 8.49220355 31.39864836 17.12508888 34.67172241 25.92077637 C39.20334479 38.08811027 43.82183229 50.21197766 48.6875 62.25 C53.84330621 75.02860889 58.88071514 87.85192876 63.87637329 100.69396973 C64.74643997 102.9293341 65.61798818 105.16412242 66.49105835 107.39831543 C67.72081958 110.54650888 68.94512548 113.6967703 70.16796875 116.84765625 C70.5403064 117.7984053 70.91264404 118.74915436 71.29626465 119.72871399 C71.63830933 120.6136705 71.980354 121.49862701 72.33276367 122.41040039 C72.63188156 123.17929092 72.93099945 123.94818146 73.23918152 124.7403717 C74 127 74 127 75 132 C67.08 132 59.16 132 51 132 C47.06317368 122.73687925 43.54197365 113.44526305 40 104 C21.85 103.67 3.7 103.34 -15 103 C-15.99 106.3 -16.98 109.6 -18 113 C-18.58672975 114.71837365 -19.18928206 116.43166136 -19.82421875 118.1328125 C-20.10096436 118.87934082 -20.37770996 119.62586914 -20.6628418 120.39501953 C-21.000979 121.29591309 -21.33911621 122.19680664 -21.6875 123.125 C-23.3271875 127.518125 -23.3271875 127.518125 -25 132 C-33.25 132 -41.5 132 -50 132 C-49.20527912 128.02639561 -48.27368514 124.79294883 -46.84765625 121.046875 C-46.40583008 119.882771 -45.96400391 118.71866699 -45.50878906 117.51928711 C-45.02685607 116.2627954 -44.54475562 115.00636791 -44.0625 113.75 C-43.56594687 112.44739802 -43.06952937 111.14474434 -42.57324219 109.84204102 C-38.99034386 100.46360877 -35.26229792 91.14726209 -31.49707031 81.84057617 C-28.61583673 74.66921116 -25.98107164 67.4414074 -23.48046875 60.12963867 C-20.80194851 52.32127387 -17.80682203 44.65006232 -14.77099609 36.97509766 C-14.0339942 35.08708456 -13.32488618 33.18825386 -12.6171875 31.2890625 C-10.46911056 25.52882459 -8.16148477 19.831328 -5.875 14.125 C-5.41996094 12.98546875 -4.96492188 11.8459375 -4.49609375 10.671875 C-4.06167969 9.58648437 -3.62726563 8.50109375 -3.1796875 7.3828125 C-2.78507324 6.39684082 -2.39045898 5.41086914 -1.98388672 4.39501953 C-1 2 -1 2 0 0 Z " fill="#017C50" transform="translate(486,399)"/>
<path d="M0 0 C-1.7389997 8.19409099 -3.80693546 16.2999229 -5.88623047 24.4128418 C-6.50268078 26.82298105 -7.11267854 29.23470003 -7.72265625 31.64648438 C-8.11679105 33.18760145 -8.51130869 34.72862067 -8.90625 36.26953125 C-9.08651733 36.98623489 -9.26678467 37.70293854 -9.45251465 38.44136047 C-10.32959034 41.83371888 -11.25232805 44.94991972 -13 48 C-14.98 46.02 -16.96 44.04 -19 42 C-23.04430846 43.57226043 -25.50569687 46.45175313 -28.3125 49.625 C-28.80105469 50.16769531 -29.28960937 50.71039063 -29.79296875 51.26953125 C-32.94281777 54.77769643 -36.04724161 58.32534057 -39.13671875 61.88671875 C-42.88703314 66.14021997 -46.75191532 70.29143062 -50.59033203 74.46533203 C-56.18173581 80.55254438 -61.73513208 86.66685013 -67.15625 92.90625 C-70.26125194 96.43226915 -73.44244949 99.88903148 -76.609375 103.359375 C-78.51835975 105.46799215 -80.39453302 107.59465957 -82.25 109.75 C-86.33056006 114.45235969 -90.61931314 118.96076583 -94.87695312 123.50195312 C-98.41370605 127.28079395 -101.89297643 131.09222454 -105.26953125 135.015625 C-109.1028254 139.41136637 -113.06626095 143.69425745 -117 148 C-121.71380794 144.14324805 -126.10825067 140.0281064 -130.4375 135.75 C-130.98180664 135.21858398 -131.52611328 134.68716797 -132.08691406 134.13964844 C-133.43127793 132.79870752 -134.72074448 131.40318996 -136 130 C-136 129.34 -136 128.68 -136 128 C-140.92310983 130.49857078 -144.11050129 134.08823032 -147.75 138.125 C-148.9948047 139.48425455 -150.24089657 140.84233145 -151.48828125 142.19921875 C-152.39054443 143.18220947 -152.39054443 143.18220947 -153.31103516 144.18505859 C-155.46188055 146.49633131 -157.68587212 148.72462647 -159.9375 150.9375 C-163.23333398 154.18459706 -166.28920758 157.56449484 -169.296875 161.078125 C-171.61703975 163.69629256 -174.09968395 166.12749798 -176.6171875 168.5546875 C-178.10854485 169.97109777 -178.10854485 169.97109777 -179 172 C-179.66 172 -180.32 172 -181 172 C-181.26280762 172.5887793 -181.52561523 173.17755859 -181.79638672 173.78417969 C-183.05616181 176.10339241 -184.38004021 177.60949403 -186.2578125 179.453125 C-186.88300781 180.071875 -187.50820312 180.690625 -188.15234375 181.328125 C-188.80332031 181.96234375 -189.45429688 182.5965625 -190.125 183.25 C-190.78371094 183.8996875 -191.44242187 184.549375 -192.12109375 185.21875 C-193.74296643 186.81711727 -195.3693281 188.41061897 -197 190 C-200.05777443 188.64556914 -202.04421157 187.15295264 -204.3125 184.70703125 C-204.91320312 184.07732422 -205.51390625 183.44761719 -206.1328125 182.79882812 C-207.38346443 181.46837518 -208.62822504 180.13236097 -209.8671875 178.79101562 C-210.46789062 178.16517578 -211.06859375 177.53933594 -211.6875 176.89453125 C-212.22761719 176.31550049 -212.76773438 175.73646973 -213.32421875 175.13989258 C-214.91442247 173.79965784 -214.91442247 173.79965784 -216.81364441 174.15994263 C-219.79034265 175.30367117 -221.40887217 177.04224298 -223.6574707 179.30102539 C-224.57555008 180.21610367 -225.49362946 181.13118195 -226.43952942 182.07398987 C-227.43517605 183.0816521 -228.43058736 184.08954688 -229.42578125 185.09765625 C-230.45646142 186.13139729 -231.48773624 187.16454574 -232.51957703 188.1971283 C-234.68359028 190.36574529 -236.84260352 192.53917652 -238.99780273 194.71655273 C-241.74118065 197.48803572 -244.49299279 200.25093732 -247.24821186 203.01064396 C-249.89388523 205.66151624 -252.5348802 208.31703117 -255.17578125 210.97265625 C-255.67149439 211.47025011 -256.16720753 211.96784397 -256.67794228 212.48051643 C-261.79305126 217.62068033 -266.82467574 222.78112105 -271.52618408 228.30503845 C-274.02237508 231.17578215 -276.72683137 233.83354554 -279.4375 236.5 C-280.24864258 237.304375 -280.24864258 237.304375 -281.07617188 238.125 C-282.38176617 239.41904036 -283.69052996 240.70988174 -285 242 C-285 237.8797771 -283.24927688 234.73899951 -281.5625 231.0625 C-280.82417595 229.43231105 -280.08589634 227.80210197 -279.34765625 226.171875 C-278.96109863 225.32302734 -278.57454102 224.47417969 -278.17626953 223.59960938 C-277.01665864 221.03681635 -275.87822225 218.46566236 -274.74609375 215.890625 C-273.99740359 214.19791324 -273.24870587 212.50520482 -272.5 210.8125 C-272.16943604 210.05525635 -271.83887207 209.2980127 -271.49829102 208.51782227 C-270.37265692 205.99135163 -269.18967127 203.49696353 -268 201 C-267.49412354 199.87505127 -266.98824707 198.75010254 -266.46704102 197.59106445 C-261.26317876 186.56496693 -253.69337548 178.89424462 -244.9375 170.5625 C-242.92333174 168.61368752 -240.91429254 166.6597025 -238.90591431 164.70492554 C-237.62767592 163.46129334 -236.34742997 162.21972071 -235.06503296 160.9803772 C-231.28620369 157.3147394 -227.67207148 153.57985019 -224.29907227 149.53100586 C-222.94242779 147.93214897 -221.50050542 146.46353765 -220 145 C-216.7413364 146.4264578 -214.5975146 148.16704162 -212.109375 150.6953125 C-211.04589844 151.76845703 -211.04589844 151.76845703 -209.9609375 152.86328125 C-209.23132813 153.60964844 -208.50171875 154.35601563 -207.75 155.125 C-207.00492187 155.87910156 -206.25984375 156.63320313 -205.4921875 157.41015625 C-203.6568658 159.26900772 -201.8263809 161.13237005 -200 163 C-196.6992076 161.89973587 -196.07519718 161.17290663 -193.9375 158.5625 C-191.09943218 155.20841985 -188.13075656 152.08310425 -185 149 C-181.37118478 145.41510388 -177.9593714 141.737064 -174.64453125 137.86328125 C-172.99601248 135.99548207 -171.27696419 134.24544376 -169.5 132.5 C-167.12775898 130.16974555 -164.90886483 127.77895594 -162.75 125.25 C-159.81724412 121.84166208 -156.69982138 118.65541703 -153.5 115.5 C-149.62177639 111.67497562 -145.97067865 107.78490136 -142.53515625 103.55859375 C-141 102 -141 102 -137 100 C-131.06 105.94 -125.12 111.88 -119 118 C-115.46796436 116.23398218 -113.99437785 115.20567051 -111.42578125 112.4375 C-110.76263916 111.72795166 -110.09949707 111.01840332 -109.41625977 110.28735352 C-108.72201904 109.53252686 -108.02777832 108.7777002 -107.3125 108 C-106.59570068 107.22906006 -105.87890137 106.45812012 -105.14038086 105.66381836 C-100.03521955 100.16092735 -94.98869289 94.60864696 -90 89 C-88.45903924 87.29102989 -86.91736112 85.58270637 -85.375 83.875 C-82.17225474 80.31823799 -79.01145576 76.72896644 -75.87109375 73.1171875 C-73.65517041 70.60981704 -71.38959092 68.15098411 -69.125 65.6875 C-65.85470527 62.10738788 -62.71973383 58.47083763 -59.6875 54.6875 C-55.52411093 49.52043677 -51.07334582 44.67611267 -46.51635742 39.8581543 C-43.51767491 36.67992641 -40.67691211 33.46118902 -38 30 C-39.0992434 27.43509874 -40.12843192 25.87156808 -42.125 23.875 C-42.74375 23.25625 -43.3625 22.6375 -44 22 C-44 21.34 -44 20.68 -44 20 C-34.27545969 15.07251311 -24.49611223 10.2578299 -14.6875 5.5 C-13.58414307 4.95956055 -12.48078613 4.41912109 -11.34399414 3.86230469 C-10.30621826 3.36118164 -9.26844238 2.86005859 -8.19921875 2.34375 C-6.80449341 1.66602539 -6.80449341 1.66602539 -5.3815918 0.97460938 C-3 0 -3 0 0 0 Z " fill="#027C50" transform="translate(364,410)"/>
<path d="M0 0 C28.71 0 57.42 0 87 0 C87 6.93 87 13.86 87 21 C66.54 21 46.08 21 25 21 C25 32.55 25 44.1 25 56 C43.15 56 61.3 56 80 56 C80 62.6 80 69.2 80 76 C61.85 76 43.7 76 25 76 C25 88.21 25 100.42 25 113 C45.79 113 66.58 113 88 113 C88 119.93 88 126.86 88 134 C58.96 134 29.92 134 0 134 C0 89.78 0 45.56 0 0 Z " fill="#01794F" transform="translate(701,398)"/>
<path d="M0 0 C0.33 0 0.66 0 1 0 C0.99777939 0.62946785 0.99555878 1.2589357 0.99327087 1.90747833 C0.94176491 17.29353164 0.93496915 32.67887803 0.97665405 48.06493378 C0.99575895 55.50588307 1.0002715 62.94628392 0.96923828 70.38720703 C0.94219683 76.88020496 0.94374992 83.37249199 0.97825909 89.86546469 C0.99553528 93.29703114 0.99943203 96.72732655 0.96896362 100.15882874 C0.85885314 115.88317328 1.40197586 127.64833053 10 141 C11.07589306 143.21285056 12.12320586 145.44013221 13.125 147.6875 C13.83765015 149.24839355 13.83765015 149.24839355 14.56469727 150.84082031 C15.03834717 151.88334961 15.51199707 152.92587891 16 154 C20.98047679 164.87996544 26.10893333 175.66104055 31.71484375 186.234375 C33 189 33 189 33 192 C11.55 192 -9.9 192 -32 192 C-32.27140179 171.88460372 -32.49222838 151.77070082 -32.62174606 131.65393543 C-32.68349512 122.31232237 -32.76760112 112.97193167 -32.90527344 103.63110352 C-33.02528183 95.48482413 -33.10239156 87.33943029 -33.12906194 79.19229144 C-33.14464185 74.88209651 -33.18096455 70.57443372 -33.26876068 66.2650547 C-33.35092379 62.19878017 -33.37520534 58.13605089 -33.35729218 54.06902504 C-33.360563 52.5858982 -33.38402892 51.10263874 -33.4304657 49.62023544 C-33.65656619 42.02236865 -32.92465787 36.33181073 -27.79185605 30.48720616 C-25.28721345 27.88183979 -22.6621672 25.44476683 -20 23 C-18.74842469 21.62422362 -17.51187222 20.23401598 -16.3125 18.8125 C-12.9740555 14.95037793 -9.54811221 11.17101503 -6.11328125 7.39453125 C-4.62291761 5.70581977 -3.18700335 3.96828567 -1.79296875 2.19921875 C-1.20128906 1.47347656 -0.60960937 0.74773437 0 0 Z " fill="#B2B4B4" transform="translate(344,461)"/>
<path d="M0 0 C4.37385799 -0.26210888 8.74569809 -0.42144886 13.125 -0.5625 C14.3625 -0.63791016 15.6 -0.71332031 16.875 -0.79101562 C25.84668623 -1.00807255 25.84668623 -1.00807255 29.05883789 1.79956055 C30.62532196 4.13111197 31.82952367 6.44925959 33 9 C33.70696225 10.18528393 34.42831296 11.36218156 35.16796875 12.52734375 C35.83441406 13.65269531 36.50085938 14.77804687 37.1875 15.9375 C37.9524504 17.2230579 38.71810997 18.50819401 39.484375 19.79296875 C39.88591797 20.46634277 40.28746094 21.1397168 40.70117188 21.83349609 C43.09073188 25.81938998 45.51403662 29.78465948 47.9375 33.75 C48.41018311 34.524646 48.88286621 35.29929199 49.36987305 36.09741211 C49.81371338 36.82323486 50.25755371 37.54905762 50.71484375 38.296875 C51.10792725 38.93979492 51.50101074 39.58271484 51.90600586 40.24511719 C52.90636805 41.84980441 53.95108179 43.42662268 55 45 C55.66 45 56.32 45 57 45 C58.73310389 42.59020257 58.73310389 42.59020257 60.52734375 39.47265625 C60.87131699 38.89637985 61.21529022 38.32010345 61.56968689 37.72636414 C62.30997948 36.48596785 63.04761832 35.24398476 63.78289795 34.00061035 C64.93931031 32.05946122 66.11754071 30.13335044 67.30322266 28.20996094 C70.68944726 22.69463057 73.9830779 17.2787257 76.62109375 11.35546875 C80.82609548 2.43746638 80.82609548 2.43746638 85 0 C93.86411956 -1.95287416 103.06102611 -1.04668498 112 0 C110.73728999 3.40192271 109.29364837 6.29531126 107.25366211 9.29272461 C106.70226059 10.10805161 106.15085907 10.9233786 105.58274841 11.76341248 C104.98696487 12.6342598 104.39118134 13.50510712 103.77734375 14.40234375 C103.1578334 15.31649551 102.53832306 16.23064728 101.90003967 17.17250061 C99.91697282 20.09721501 97.9275898 23.0175608 95.9375 25.9375 C91.5030865 32.45914701 87.07652485 38.98594958 82.67010498 45.52655029 C81.60235503 47.10790346 80.53096672 48.68680998 79.45489502 50.26251221 C78.12597914 52.21028514 76.81268152 54.16756878 75.50390625 56.12890625 C74.79177979 57.18279541 74.07965332 58.23668457 73.34594727 59.32250977 C71.79740306 61.82848478 71.79740306 61.82848478 72.16894531 64.18579102 C73.51696265 67.1285398 75.3480091 69.72590424 77.1875 72.375 C81.58870111 78.83702939 85.8227028 85.39119254 90 92 C96.3020412 101.94942928 102.76187506 111.77743744 109.390625 121.51171875 C110.12796875 122.60097656 110.8653125 123.69023438 111.625 124.8125 C112.27726563 125.76769531 112.92953125 126.72289062 113.6015625 127.70703125 C115 130 115 130 115 132 C110.64725867 132.29176878 106.29703308 132.46842365 101.9375 132.625 C100.70837891 132.70878906 99.47925781 132.79257812 98.21289062 132.87890625 C89.31143536 133.11883766 89.31143536 133.11883766 85.83056641 130.14916992 C83.96842149 127.52490455 82.48667355 124.85294001 81 122 C79.77349972 120.0451158 78.53353767 118.09862234 77.28125 116.16015625 C76.01803799 114.12934026 74.75764277 112.0967696 73.5 110.0625 C71.62053266 107.03403871 69.73977322 104.00641131 67.85546875 100.98095703 C66.60331012 98.96926534 65.35602167 96.95453518 64.11328125 94.93701172 C63.50871094 93.96650879 62.90414062 92.99600586 62.28125 91.99609375 C61.74564453 91.13040771 61.21003906 90.26472168 60.65820312 89.37280273 C58.97297932 86.96133481 57.13952959 85.01177476 55 83 C50.49705766 89.97046377 46.00885466 96.95009959 41.58666992 103.97216797 C40.56393194 105.58449973 39.52872109 107.18898193 38.48168945 108.78564453 C35.94504831 112.69114747 33.72349815 116.45241842 31.9609375 120.76953125 C28.14422196 129.46529869 28.14422196 129.46529869 24 132 C15.16743864 133.93954003 5.91415639 132.97566014 -3 132 C-1.63977201 128.28589936 0.0512751 125.16368867 2.23046875 121.8671875 C3.18856445 120.40925781 3.18856445 120.40925781 4.16601562 118.921875 C4.83310547 117.91640625 5.50019531 116.9109375 6.1875 115.875 C7.49410772 113.89363666 8.80009931 111.91186687 10.10546875 109.9296875 C10.7595874 108.9382373 11.41370605 107.94678711 12.08764648 106.92529297 C13.8721659 104.19554554 15.62108076 101.44683486 17.359375 98.6875 C19.71735176 94.96163617 22.14095091 91.29078256 24.62312317 87.64724731 C26.34295352 85.12244248 28.04936856 82.58868522 29.75561523 80.0546875 C30.63693556 78.75336939 31.52446066 77.45623475 32.41772461 76.16308594 C33.72416071 74.26824409 35.00646008 72.35894539 36.28515625 70.4453125 C36.89110374 69.58427414 36.89110374 69.58427414 37.5092926 68.70584106 C38.76419769 66.88578198 38.76419769 66.88578198 40 64 C38.96058932 59.65525553 36.26456097 56.20656701 33.75 52.5625 C29.33317784 46.05632748 25.0795257 39.45765491 20.875 32.8125 C16.61783356 26.08870806 12.33645507 19.39764657 7.84375 12.828125 C5.1049164 8.62703278 2.56041245 4.31149913 0 0 Z " fill="#017C50" transform="translate(808,399)"/>
<path d="M0 0 C0.33 0 0.66 0 1 0 C1 46.86 1 93.72 1 142 C-9.89 142 -20.78 142 -32 142 C-32.34018997 128.32540994 -32.61479995 114.65367197 -32.77718258 100.97579193 C-32.85515773 94.62303801 -32.96073113 88.27335168 -33.1315918 81.92236328 C-33.29573993 75.78177747 -33.38449638 69.64412252 -33.42315865 63.50151062 C-33.45067242 61.16975283 -33.50440483 58.83813851 -33.58595085 56.50764465 C-34.26171189 36.37679099 -34.26171189 36.37679099 -26.8726511 27.97724152 C-24.3382948 25.42902418 -21.69465257 23.06299763 -18.9492054 20.74537659 C-15.64255302 17.78450153 -12.85600703 14.38709705 -10 11 C-8.22333248 8.98596259 -6.42476756 6.99358869 -4.625 5 C-3.77164062 4.05125 -2.91828125 3.1025 -2.0390625 2.125 C-1.36617188 1.42375 -0.69328125 0.7225 0 0 Z " fill="#007D50" transform="translate(299,511)"/>
<path d="M0 0 C3.36152609 1.45299829 5.50218106 3.29042948 8.0390625 5.9140625 C9.15667969 7.05488281 9.15667969 7.05488281 10.296875 8.21875 C11.06515625 9.0128125 11.8334375 9.806875 12.625 10.625 C14.15421728 12.20502184 15.68784633 13.78078974 17.2265625 15.3515625 C17.90283691 16.05104004 18.57911133 16.75051758 19.27587891 17.47119141 C20.86535331 19.22115195 20.86535331 19.22115195 23 19 C23.99 18.01 24.98 17.02 26 16 C26 45.04 26 74.08 26 104 C13.79 104 1.58 104 -11 104 C-11.22640511 92.17747348 -11.40965457 80.3563987 -11.51812172 68.53219032 C-11.57019521 63.04098257 -11.64075963 57.55134135 -11.75439453 52.06103516 C-11.86347955 46.75704057 -11.92293012 41.45454725 -11.94877243 36.14951706 C-11.96717455 34.13121286 -12.00311255 32.11298603 -12.05730057 30.09532547 C-12.48709727 13.42079525 -12.48709727 13.42079525 -8.74237061 8.54217529 C-6.2836269 6.08781174 -3.80094078 4.04202273 -1 2 C-0.67 1.34 -0.34 0.68 0 0 Z " fill="#017C50" transform="translate(225,549)"/>
<path d="M0 0 C0 25.08 0 50.16 0 76 C-12.87 76 -25.74 76 -39 76 C-39 59.83 -39 43.66 -39 27 C-36.525 28.98 -36.525 28.98 -34 31 C-31.10365998 31.00553794 -30.09578322 30.08091115 -27.88671875 28.21484375 C-27.16097656 27.46332031 -26.43523437 26.71179688 -25.6875 25.9375 C-24.89214844 25.11636719 -24.09679687 24.29523437 -23.27734375 23.44921875 C-21.38704514 21.4162561 -19.55351845 19.359352 -17.75 17.25 C-14.38247836 13.32388473 -10.77459616 9.66146477 -7.125 6 C-6.24859863 5.11683105 -6.24859863 5.11683105 -5.35449219 4.21582031 C-1.12373099 0 -1.12373099 0 0 0 Z " fill="#027B50" transform="translate(200,577)"/>
<path d="M0 0 C4.62 -0.0825 9.24 -0.165 14 -0.25 C16.16175781 -0.30462402 16.16175781 -0.30462402 18.3671875 -0.36035156 C26.8293383 -0.43338237 32.57312974 0.01833681 39.05859375 5.8515625 C39.74115234 6.72941406 39.74115234 6.72941406 40.4375 7.625 C40.91058594 8.21539062 41.38367188 8.80578125 41.87109375 9.4140625 C45.60343382 14.65741913 44.58799535 22.78198921 44 29 C42.47410289 34.93791963 39.10519103 38.62864743 34 42 C26.79159646 45.39490076 19.7694277 45.36236817 11.9375 45.1875 C7.998125 45.125625 4.05875 45.06375 0 45 C0 30.15 0 15.3 0 0 Z " fill="#0E0F0F" transform="translate(610,419)"/>
<path d="M0 0 C0 18.81 0 37.62 0 57 C-18.81 57 -37.62 57 -57 57 C-53.17732532 52.54021288 -49.52137744 48.40747606 -45.375 44.3125 C-44.86501465 43.80630127 -44.3550293 43.30010254 -43.82958984 42.77856445 C-41.6825558 40.64763152 -39.52950651 38.52281599 -37.37695312 36.39746094 C-31.68604882 30.77208826 -26.15035212 25.13330576 -21 19 C-19.82570486 17.899997 -18.62222095 16.8290705 -17.375 15.8125 C-12.97924783 12.09104768 -8.97108132 8.02683215 -4.94873047 3.91137695 C-1.10153574 0 -1.10153574 0 0 0 Z " fill="#017D51" transform="translate(145,596)"/>
<path d="M0 0 C4.2916415 1.96533116 7.04514092 4.25844997 9.65234375 8.26953125 C10.18601562 9.08164062 10.18601562 9.08164062 10.73046875 9.91015625 C13.16967902 16.15288084 12.64748287 25.5256565 10.9296875 31.98828125 C8.63125912 36.82707785 5.21775968 41.02622387 0.36328125 43.37890625 C-5.60400204 45.33933938 -12.1115465 45.32660131 -17.78515625 42.64453125 C-23.02090862 37.79188271 -26.97711006 33.340727 -27.6484375 25.96484375 C-27.67594156 17.58527373 -27.64112025 12.09707049 -22.03515625 5.58203125 C-21.14828125 4.81890625 -20.26140625 4.05578125 -19.34765625 3.26953125 C-18.04828125 2.12484375 -18.04828125 2.12484375 -16.72265625 0.95703125 C-11.31198053 -1.74830661 -5.77838494 -1.79793342 0 0 Z " fill="#AAADAF" transform="translate(568.34765625,641.73046875)"/>
<path d="M0 0 C3.3 0 6.6 0 10 0 C13.21162408 7.13610864 16.25236107 14.33418171 19.25 21.5625 C19.70890625 22.66658203 20.1678125 23.77066406 20.640625 24.90820312 C21.76139793 27.605063 22.88116738 30.30233472 24 33 C24.43082886 31.82026611 24.43082886 31.82026611 24.87036133 30.61669922 C25.94665045 27.67474109 27.02610832 24.73397022 28.10766602 21.79394531 C28.80141305 19.90518478 29.49155654 18.01510192 30.18164062 16.125 C30.62314453 14.92617188 31.06464844 13.72734375 31.51953125 12.4921875 C31.92276611 11.39245605 32.32600098 10.29272461 32.74145508 9.15966797 C33.99803149 6.00494209 35.43770086 3.01343087 37 0 C40.63 0 44.26 0 48 0 C48 14.85 48 29.7 48 45 C45.36 45 42.72 45 40 45 C39.67 34.77 39.34 24.54 39 14 C35.42390846 23.12435699 35.42390846 23.12435699 31.84985352 32.24951172 C31.40569092 33.38146973 30.96152832 34.51342773 30.50390625 35.6796875 C30.04830322 36.84226074 29.5927002 38.00483398 29.12329102 39.20263672 C28 42 28 42 27 44 C24.69 44 22.38 44 20 44 C16.37 35.09 12.74 26.18 9 17 C8.67 25.91 8.34 34.82 8 44 C5.36 44 2.72 44 0 44 C0 29.48 0 14.96 0 0 Z " fill="#ABADAF" transform="translate(712,568)"/>
<path d="M0 0 C22.45454545 0 22.45454545 0 28.4375 5.0625 C31.3972112 8.73254188 31.4375 11.79185456 31.4375 16.3984375 C30.81044431 20.12717937 28.9884564 21.8854659 26.21484375 24.33203125 C24.76543185 25.95872016 24.76543185 25.95872016 25.09375 28.2421875 C26.25499934 31.77598937 27.85110873 35.0218843 29.5625 38.3125 C29.89185547 38.95767578 30.22121094 39.60285156 30.56054688 40.26757812 C31.36824255 41.84785228 32.18337613 43.42432105 33 45 C30.03 45 27.06 45 24 45 C23.5153125 43.92878906 23.030625 42.85757813 22.53125 41.75390625 C21.85575317 40.35600309 21.17858113 38.95890856 20.5 37.5625 C20.18546875 36.85544922 19.8709375 36.14839844 19.546875 35.41992188 C17.62778587 31.42584627 17.62778587 31.42584627 13.93359375 29.30419922 C11.47573112 28.9532013 11.47573112 28.9532013 8 29 C8 34.28 8 39.56 8 45 C5.36 45 2.72 45 0 45 C0 30.15 0 15.3 0 0 Z " fill="#A8ACB0" transform="translate(494,641)"/>
<path d="M0 0 C0.66 0 1.32 0 2 0 C5.18657247 7.79773027 8.17118693 15.66792284 11.09667969 23.56640625 C11.74566554 25.31480922 12.39772345 27.06207303 13.05175781 28.80859375 C14.16608619 31.78665835 15.27130933 34.76797862 16.375 37.75 C16.73303711 38.70293945 17.09107422 39.65587891 17.45996094 40.63769531 C17.7902832 41.53584961 18.12060547 42.43400391 18.4609375 43.359375 C18.75790527 44.15827148 19.05487305 44.95716797 19.36083984 45.78027344 C20 48 20 48 20 52 C7.46 52 -5.08 52 -18 52 C-17.16891697 47.84458486 -16.12241611 44.2626575 -14.70703125 40.29296875 C-14.48019653 39.65430878 -14.25336182 39.0156488 -14.01965332 38.3576355 C-13.2874803 36.29963987 -12.55018379 34.24352604 -11.8125 32.1875 C-11.31064041 30.78122236 -10.80893159 29.3748909 -10.30737305 27.96850586 C-6.96405702 18.61077183 -3.56326967 9.27652906 0 0 Z " fill="#060C11" transform="translate(497,430)"/>
<path d="M0 0 C3.3 0 6.6 0 10 0 C10.46148438 0.825 10.92296875 1.65 11.3984375 2.5 C16.66386792 11.84586532 22.27149816 20.92987208 28 30 C28.33 20.1 28.66 10.2 29 0 C31.64 0 34.28 0 37 0 C37 14.52 37 29.04 37 44 C34.03 44 31.06 44 28 44 C25.71875598 41.53405298 24.50385463 39.82998657 23 36.9375 C22.59410645 36.22464844 22.18821289 35.51179687 21.77001953 34.77734375 C20.92144562 33.28569196 20.08582454 31.78660401 19.26269531 30.28076172 C17.64948227 27.36687226 15.93150795 24.52384454 14.19873047 21.67993164 C12.44824699 18.79721918 10.72697314 15.89685818 9 13 C8.67 23.23 8.34 33.46 8 44 C5.36 44 2.72 44 0 44 C0 29.48 0 14.96 0 0 Z " fill="#A8ABAF" transform="translate(825,568)"/>
<path d="M0 0 C9 0 9 0 11.22753906 1.984375 C11.73510742 2.89703125 12.24267578 3.8096875 12.765625 4.75 C13.34570312 5.75160156 13.92578125 6.75320313 14.5234375 7.78515625 C15.09320313 8.84605469 15.66296875 9.90695312 16.25 11 C16.83523438 12.02996094 17.42046875 13.05992187 18.0234375 14.12109375 C19.12806991 16.06534586 20.21872903 18.01765856 21.29003906 19.98046875 C23.40923277 23.72264291 25.72070572 27.35312915 28 31 C28.33 20.77 28.66 10.54 29 0 C31.31 0 33.62 0 36 0 C36 14.52 36 29.04 36 44 C33.03 44 30.06 44 27 44 C24.86140776 41.67329085 23.83249448 40.18442119 22.5 37.4375 C21.76146603 36.06714228 21.0218488 34.6973679 20.28125 33.328125 C19.91128906 32.61720703 19.54132813 31.90628906 19.16015625 31.17382812 C17.24903723 27.59289298 15.11641823 24.14961033 13 20.6875 C9.18123862 14.36247723 9.18123862 14.36247723 8 12 C7.67 22.56 7.34 33.12 7 44 C4.69 44 2.38 44 0 44 C0 29.48 0 14.96 0 0 Z " fill="#AFB1B4" transform="translate(467,568)"/>
<path d="M0 0 C21 0 21 0 28 4 C31.00450332 8.11360372 30.50668002 13.12320483 30 18 C28.28192304 22.24997984 26.08343928 24.0080784 22 26 C18.86030059 26.98408489 16.03109778 27.10567234 12.75 27.0625 C10.39875 27.0315625 10.39875 27.0315625 8 27 C8 32.61 8 38.22 8 44 C5.36 44 2.72 44 0 44 C0 29.48 0 14.96 0 0 Z " fill="#ACAFB2" transform="translate(648,642)"/>
<path d="M0 0 C4.29293697 1.82124599 6.55720384 4.67690768 8.625 8.8125 C8.664992 10.81210012 8.66846799 12.81297242 8.625 14.8125 C6.315 14.8125 4.005 14.8125 1.625 14.8125 C1.17125 13.69875 0.7175 12.585 0.25 11.4375 C-1.09965986 7.85050992 -1.09965986 7.85050992 -3.375 5.8125 C-6.77871071 5.18597626 -9.97143571 5.19172412 -13.375 5.8125 C-16.92027369 8.271834 -18.58979392 11.63769141 -19.375 15.8125 C-19.93201894 22.20750595 -19.62083051 27.2162405 -16.375 32.8125 C-13.55944647 35.94983108 -11.44579929 37.07433591 -7.3125 37.3125 C-3.44105559 37.11793888 -3.44105559 37.11793888 -0.9375 35.1875 C0.91265829 32.3752594 1.32250921 30.13989873 1.625 26.8125 C-1.345 26.8125 -4.315 26.8125 -7.375 26.8125 C-7.375 25.1625 -7.375 23.5125 -7.375 21.8125 C-4.30966836 20.27983418 -1.10745728 20.70973529 2.25 20.75 C3.30960937 20.75676758 3.30960937 20.75676758 4.390625 20.76367188 C6.13545275 20.77546125 7.880237 20.79339676 9.625 20.8125 C10.09628149 27.93408699 10.19250948 34.00054932 5.625 39.8125 C0.38122222 44.2752896 -4.50612836 44.43226493 -11.28125 44.19140625 C-16.39156297 43.56552196 -19.37559017 42.06837863 -22.8671875 38.12890625 C-28.63440509 30.55332382 -27.99271874 21.95110366 -27.375 12.8125 C-26.20170499 7.50096178 -23.50613973 4.58181795 -19.25 1.3125 C-12.93682203 -2.49199313 -6.8770868 -2.19454347 0 0 Z " fill="#A8ACB0" transform="translate(467.375,642.1875)"/>
<path d="M0 0 C2.64 0 5.28 0 8 0 C8.01981934 0.94319092 8.03963867 1.88638184 8.06005859 2.8581543 C8.13834766 6.37143034 8.22504698 9.88429264 8.31738281 13.3972168 C8.35556704 14.91503978 8.39043808 16.43295001 8.421875 17.95092773 C8.46775628 20.13817431 8.52571029 22.32482582 8.5859375 24.51171875 C8.6173584 25.82615967 8.6487793 27.14060059 8.68115234 28.49487305 C8.98207932 31.80299597 9.39370665 34.10374303 11 37 C14.69798008 38.23266003 18.15521703 38.58136839 22 38 C24.43119623 36.12984906 25.64069173 34.71861655 27 32 C27.15608023 29.59439727 27.25804458 27.21297228 27.31640625 24.8046875 C27.33718735 24.09724396 27.35796844 23.38980042 27.37937927 22.66091919 C27.44481078 20.39904575 27.50372974 18.13705538 27.5625 15.875 C27.60569133 14.34243578 27.64930582 12.80988343 27.69335938 11.27734375 C27.80048555 7.51834927 27.9017709 3.75923708 28 0 C30.64 0 33.28 0 36 0 C36.12447553 4.55312342 36.21474409 9.10523654 36.2746582 13.65966797 C36.29965732 15.20574212 36.33366902 16.75169982 36.37719727 18.29736328 C36.83093968 34.83493993 36.83093968 34.83493993 31 41 C27.02409754 45.07784868 23.48386569 45.31547455 18 45.5 C12.52745957 45.3329435 9.06030867 44.95345844 5 41 C0.02425915 35.6208207 -0.12621827 31.80700394 -0.09765625 24.609375 C-0.0962413 23.90476135 -0.09482635 23.20014771 -0.09336853 22.47418213 C-0.08778933 20.23274416 -0.07524073 17.99140757 -0.0625 15.75 C-0.05748231 14.22656395 -0.05291987 12.70312632 -0.04882812 11.1796875 C-0.03782674 7.45309228 -0.02057646 3.72655604 0 0 Z " fill="#AAACAF" transform="translate(596,641)"/>
<path d="M0 0 C9.24 0 18.48 0 28 0 C28 2.31 28 4.62 28 7 C21.4 7 14.8 7 8 7 C8 10.63 8 14.26 8 18 C14.27 18 20.54 18 27 18 C27 20.31 27 22.62 27 25 C20.73 25 14.46 25 8 25 C8 29.29 8 33.58 8 38 C14.6 38 21.2 38 28 38 C28 39.98 28 41.96 28 44 C18.76 44 9.52 44 0 44 C0 29.48 0 14.96 0 0 Z " fill="#AAADB0" transform="translate(779,568)"/>
<path d="M0 0 C9.24 0 18.48 0 28 0 C28 2.31 28 4.62 28 7 C21.4 7 14.8 7 8 7 C8 10.63 8 14.26 8 18 C14.27 18 20.54 18 27 18 C27 20.31 27 22.62 27 25 C20.73 25 14.46 25 8 25 C8 29.29 8 33.58 8 38 C14.27 38 20.54 38 27 38 C27 39.98 27 41.96 27 44 C18.09 44 9.18 44 0 44 C0 29.48 0 14.96 0 0 Z " fill="#A9ADB1" transform="translate(571,568)"/>
<path d="M0 0 C3.4375 1.8125 3.4375 1.8125 6 4 C6.61875 4.45375 7.2375 4.9075 7.875 5.375 C9.58761248 7.84877359 9.1945254 10.08211895 9 13 C6.69 13 4.38 13 2 13 C1.01 11.02 0.02 9.04 -1 7 C-2.45792884 6.94600264 -3.91642712 6.90720823 -5.375 6.875 C-6.59316406 6.84019531 -6.59316406 6.84019531 -7.8359375 6.8046875 C-10.21342243 6.78629949 -10.21342243 6.78629949 -12 9 C-12.06546898 11.51047485 -12.06546898 11.51047485 -11 14 C-8.70010232 15.78056595 -6.24532193 16.88479134 -3.62109375 18.1171875 C7.14080882 23.28161765 7.14080882 23.28161765 10 29 C10.48978361 33.99579281 9.94121876 37.33834827 7.24609375 41.48828125 C4.49283785 44.8284381 1.59746024 45.80954274 -2.62109375 46.3125 C-8.59954026 46.57207977 -12.39276404 46.15774953 -17 42 C-20.06272483 38.77172248 -21.49270927 36.43879389 -22 32 C-19.36 32 -16.72 32 -14 32 C-13.525625 32.969375 -13.05125 33.93875 -12.5625 34.9375 C-11.29806053 37.80477437 -11.29806053 37.80477437 -10 39 C-7.93227266 39.19941868 -7.93227266 39.19941868 -5.5625 39.1875 C-4.75941406 39.20167969 -3.95632813 39.21585938 -3.12890625 39.23046875 C-0.78369367 39.20162356 -0.78369367 39.20162356 1 37 C1.50074814 32.97778083 1.50074814 32.97778083 -0.15625 29.45703125 C-2.54755303 27.56729389 -4.96137867 26.69372221 -7.8125 25.625 C-16.61807303 22.02175099 -16.61807303 22.02175099 -20 18 C-21.10437765 14.89968982 -21.4377512 12.26585434 -21 9 C-16.07310106 0.93780174 -9.03865522 -1.35212403 0 0 Z " fill="#A8ACB0" transform="translate(637,567)"/>
<path d="M0 0 C2.97 0 5.94 0 9 0 C9.44653931 1.40076782 9.44653931 1.40076782 9.90209961 2.82983398 C11.00415093 6.2841151 12.11022085 9.73709815 13.2175293 13.18969727 C13.69682321 14.68608896 14.17501675 16.18283355 14.65209961 17.67993164 C15.33680993 19.82791698 16.0254275 21.97461492 16.71484375 24.12109375 C16.92842026 24.79401962 17.14199677 25.4669455 17.36204529 26.16026306 C18.21761381 29.33550532 18.21761381 29.33550532 20 32 C20.29769287 31.06615479 20.59538574 30.13230957 20.90209961 29.17016602 C22.00415093 25.7158849 23.11022085 22.26290185 24.2175293 18.81030273 C24.69682321 17.31391104 25.17501675 15.81716645 25.65209961 14.32006836 C26.33680993 12.17208302 27.0254275 10.02538508 27.71484375 7.87890625 C27.92842026 7.20598038 28.14199677 6.5330545 28.36204529 5.83973694 C29.88612829 1.11387171 29.88612829 1.11387171 31 0 C33.67058851 -0.14115161 36.32432238 -0.04247107 39 0 C38.30733296 4.11349549 37.05471828 7.82818069 35.6015625 11.734375 C35.36593597 12.37183655 35.13030945 13.0092981 34.88754272 13.66607666 C34.13685706 15.69536733 33.38122773 17.72276883 32.625 19.75 C31.63603531 22.41072495 30.64926162 25.07225357 29.6640625 27.734375 C29.42874817 28.36960083 29.19343384 29.00482666 28.95098877 29.65930176 C27.19899948 34.40926368 25.55944074 39.18376805 24 44 C21.03 44 18.06 44 15 44 C13.3428211 39.34208738 11.68890571 34.6830329 10.0378418 30.02294922 C9.47718681 28.44191182 8.91568275 26.86117522 8.35327148 25.28076172 C5.37310118 16.90449638 2.44244615 8.55284651 0 0 Z " fill="#AAACAF" transform="translate(518,568)"/>
<path d="M0 0 C4.22592194 1.82482993 6.03906336 3.87927118 8 8 C8.4498294 10.82248029 8.46476993 13.58407369 8.4375 16.4375 C8.4674707 17.54448242 8.4674707 17.54448242 8.49804688 18.67382812 C8.49340947 23.89091289 7.44053931 26.87508578 4 31 C0.29666973 33.46888685 -2.70417157 33.66413003 -7 33 C-10.8143391 30.88092272 -12.9545039 28.30617449 -14.48828125 24.18359375 C-16.01261966 17.67897413 -16.20336487 11.20644959 -12.6875 5.375 C-9.18099612 0.38376024 -6.02810459 -0.51966419 0 0 Z " fill="#111111" transform="translate(564,647)"/>
<path d="M0 0 C11.55 0 23.1 0 35 0 C35 2.31 35 4.62 35 7 C30.71 7 26.42 7 22 7 C22 19.54 22 32.08 22 45 C19.03 45 16.06 45 13 45 C13 32.46 13 19.92 13 7 C8.71 7 4.42 7 0 7 C0 4.69 0 2.38 0 0 Z " fill="#A1A4A7" transform="translate(660,568)"/>
<path d="M0 0 C11.22 0 22.44 0 34 0 C34 2.31 34 4.62 34 7 C29.71 7 25.42 7 21 7 C21 19.21 21 31.42 21 44 C18.36 44 15.72 44 13 44 C13 31.79 13 19.58 13 7 C8.71 7 4.42 7 0 7 C0 4.69 0 2.38 0 0 Z " fill="#AAADB1" transform="translate(878,568)"/>
<path d="M0 0 C2.31 0 4.62 0 7 0 C7 14.52 7 29.04 7 44 C4.69 44 2.38 44 0 44 C0 29.48 0 14.96 0 0 Z " fill="#B2B4B7" transform="translate(441,568)"/>
<path d="M0 0 C0.33 0 0.66 0 1 0 C1 46.86 1 93.72 1 142 C-9.89 142 -20.78 142 -32 142 C-32 106.69 -32 71.38 -32 35 C-31.01 34.505 -31.01 34.505 -30 34 C-30.33 69.31 -30.66 104.62 -31 141 C-20.77 141 -10.54 141 0 141 C-0.33 96.12 -0.66 51.24 -1 5 C-3.64 7.64 -6.28 10.28 -9 13 C-9 8.87731395 -7.32277298 7.79669528 -4.5625 4.8125 C-3.73878906 3.91144531 -2.91507812 3.01039063 -2.06640625 2.08203125 C-1.38449219 1.39496094 -0.70257813 0.70789063 0 0 Z " fill="#127555" transform="translate(299,511)"/>
<path d="M0 0 C1.37478516 0.01740234 1.37478516 0.01740234 2.77734375 0.03515625 C3.69644531 0.04417969 4.61554688 0.05320312 5.5625 0.0625 C6.27277344 0.07410156 6.98304688 0.08570313 7.71484375 0.09765625 C7.71484375 0.42765625 7.71484375 0.75765625 7.71484375 1.09765625 C9.36484375 1.42765625 11.01484375 1.75765625 12.71484375 2.09765625 C12.71484375 2.42765625 12.71484375 2.75765625 12.71484375 3.09765625 C9.41484375 3.09765625 6.11484375 3.09765625 2.71484375 3.09765625 C2.71484375 8.70765625 2.71484375 14.31765625 2.71484375 20.09765625 C6.01484375 20.09765625 9.31484375 20.09765625 12.71484375 20.09765625 C12.71484375 20.42765625 12.71484375 20.75765625 12.71484375 21.09765625 C9.74484375 21.09765625 6.77484375 21.09765625 3.71484375 21.09765625 C3.71484375 21.75765625 3.71484375 22.41765625 3.71484375 23.09765625 C6.02484375 23.42765625 8.33484375 23.75765625 10.71484375 24.09765625 C10.71484375 24.42765625 10.71484375 24.75765625 10.71484375 25.09765625 C6.75484375 25.59265625 6.75484375 25.59265625 2.71484375 26.09765625 C2.38484375 31.04765625 2.05484375 35.99765625 1.71484375 41.09765625 C0.06484375 41.09765625 -1.58515625 41.09765625 -3.28515625 41.09765625 C-3.3098033 35.41935547 -3.32799087 29.74108556 -3.34008789 24.06274414 C-3.34512881 22.1294704 -3.35196144 20.19620049 -3.3605957 18.26293945 C-3.3726719 15.49038753 -3.37838682 12.71788584 -3.3828125 9.9453125 C-3.38797379 9.07552261 -3.39313507 8.20573273 -3.39845276 7.30958557 C-3.3986481 5.23859811 -3.34723793 3.16771301 -3.28515625 1.09765625 C-2.28515625 0.09765625 -2.28515625 0.09765625 0 0 Z " fill="#ADB0B4" transform="translate(499.28515625,643.90234375)"/>
<path d="M0 0 C9.46907601 -0.27850224 9.46907601 -0.27850224 13 2 C15.47342266 5.71013399 15.38503486 7.61060262 15 12 C13.23984869 15.1850357 12.50109084 15.83296972 9 17 C7.43881572 17.06740865 5.8749748 17.08514456 4.3125 17.0625 C2.1778125 17.0315625 2.1778125 17.0315625 0 17 C0 11.39 0 5.78 0 0 Z " fill="#12151B" transform="translate(502,647)"/>
<path d="M0 0 C10.46641791 -0.36940299 10.46641791 -0.36940299 12.828125 1.265625 C14.86160047 4.2751687 14.58813648 7.56113139 14 11 C12.625 13.5 12.625 13.5 10 15 C6.59261423 15.3204438 3.43812659 15.18095403 0 15 C0 10.05 0 5.1 0 0 Z " fill="#131313" transform="translate(656,648)"/>
<path d="M0 0 C5.94 0 11.88 0 18 0 C18.33 0.66 18.66 1.32 19 2 C13.39 2 7.78 2 2 2 C2 15.86 2 29.72 2 44 C3.65 44 5.3 44 7 44 C7 39.05 7 34.1 7 29 C7.33 29 7.66 29 8 29 C8 34.28 8 39.56 8 45 C5.36 45 2.72 45 0 45 C0 30.15 0 15.3 0 0 Z " fill="#9EA1A6" transform="translate(494,641)"/>
<path d="M0 0 C3.4375 1.8125 3.4375 1.8125 6 4 C6.61875 4.45375 7.2375 4.9075 7.875 5.375 C9.58761248 7.84877359 9.1945254 10.08211895 9 13 C6.69 13 4.38 13 2 13 C1.649375 12.030625 1.29875 11.06125 0.9375 10.0625 C-0.7355192 6.6383541 -0.7355192 6.6383541 -4.5 6.125 C-6.66568653 6.04765405 -8.83293273 6 -11 6 C-11 5.01 -11 4.02 -11 3 C-11.66 2.34 -12.32 1.68 -13 1 C-8.65491432 -0.44836189 -4.54108905 -0.52342771 0 0 Z " fill="#A1A5A9" transform="translate(637,567)"/>
<path d="M0 0 C0.66 0 1.32 0 2 0 C2 14.85 2 29.7 2 45 C-0.64 45 -3.28 45 -6 45 C-6 35.1 -6 25.2 -6 15 C-5.67 15 -5.34 15 -5 15 C-5 24.24 -5 33.48 -5 43 C-3.35 43 -1.7 43 0 43 C0 28.81 0 14.62 0 0 Z " fill="#A2A3A6" transform="translate(758,568)"/>
<path d="M0 0 C2.64 0 5.28 0 8 0 C8.28875 1.11375 8.5775 2.2275 8.875 3.375 C9.69241329 7.00291092 9.69241329 7.00291092 12 9 C12 9.99 12 10.98 12 12 C15.63 12 19.26 12 23 12 C22.67 12.66 22.34 13.32 22 14 C12.26967471 14.62329486 12.26967471 14.62329486 7.5625 12.3125 C3.3994955 8.55564228 0.65287632 5.71266776 0 0 Z " fill="#A2A6AA" transform="translate(615,599)"/>
<path d="M0 0 C2.64 0 5.28 0 8 0 C8 10.89 8 21.78 8 33 C7.34 33 6.68 33 6 33 C6 22.77 6 12.54 6 2 C4.35 2 2.7 2 1 2 C1 11.9 1 21.8 1 32 C0.67 32 0.34 32 0 32 C0 21.44 0 10.88 0 0 Z " fill="#9FA1A3" transform="translate(624,641)"/>
<path d="M0 0 C2.64 0 5.28 0 8 0 C8 9.9 8 19.8 8 30 C7.67 30 7.34 30 7 30 C7 20.76 7 11.52 7 2 C5.35 2 3.7 2 2 2 C2 12.56 2 23.12 2 34 C0 32 0 32 -0.22705078 28.83544922 C-0.22673389 27.49182037 -0.21542181 26.1481659 -0.1953125 24.8046875 C-0.1924826 24.09724396 -0.18965271 23.38980042 -0.18673706 22.66091919 C-0.17553137 20.3987749 -0.15042679 18.13702485 -0.125 15.875 C-0.11497067 14.34245363 -0.10584474 12.80990106 -0.09765625 11.27734375 C-0.07559086 7.51807699 -0.04105896 3.75910536 0 0 Z " fill="#A1A2A6" transform="translate(596,641)"/>
<path d="M0 0 C0 3 0 3 -2.5703125 5.91088867 C-3.74753841 7.08763873 -4.93304138 8.25614424 -6.125 9.41796875 C-6.74648926 10.03521317 -7.36797852 10.65245758 -8.00830078 11.28840637 C-9.99861833 13.26190579 -11.99910395 15.22473225 -14 17.1875 C-15.34964009 18.52209737 -16.69860736 19.85737551 -18.046875 21.19335938 C-21.35682227 24.47019575 -24.67592738 27.73749597 -28 31 C-28.66 30.67 -29.32 30.34 -30 30 C-18.21511403 16.93841805 -18.21511403 16.93841805 -12.0234375 11.765625 C-7.79739636 8.07803698 -3.92768392 4.00012072 0 0 Z " fill="#0A7953" transform="translate(142,598)"/>
<path d="M0 0 C1.58246707 -0.08153933 3.16616273 -0.13943557 4.75 -0.1875 C6.07257813 -0.23970703 6.07257813 -0.23970703 7.421875 -0.29296875 C10.49675097 0.05644897 11.82639854 0.82132003 14 3 C14 3.99 14 4.98 14 6 C10.13056866 7.28981045 6.8807199 7.35825197 3 6 C1 2.9375 1 2.9375 0 0 Z " fill="#9C9FA3" transform="translate(453,641)"/>
<path d="M0 0 C4.62 0 9.24 0 14 0 C11 2 11 2 9 2 C9 2.66 9 3.32 9 4 C6.04335481 5.4783226 3.25770263 5.06032783 0 5 C0 3.35 0 1.7 0 0 Z " fill="#B2B6BA" transform="translate(460,664)"/>
<path d="M0 0 C-1.65863505 4.32504836 -4.871041 7.09418825 -8.125 10.25 C-8.68832031 10.80429687 -9.25164062 11.35859375 -9.83203125 11.9296875 C-11.21686028 13.29104485 -12.60783204 14.64614859 -14 16 C-14.33 15.01 -14.66 14.02 -15 13 C-12.88094537 10.82722286 -10.75527122 8.66173092 -8.625 6.5 C-8.02171875 5.87996094 -7.4184375 5.25992187 -6.796875 4.62109375 C-6.21679688 4.03457031 -5.63671875 3.44804687 -5.0390625 2.84375 C-4.50490723 2.29912109 -3.97075195 1.75449219 -3.42041016 1.19335938 C-2 0 -2 0 0 0 Z " fill="#111418" transform="translate(225,500)"/>
<path d="M0 0 C0.66 0 1.32 0 2 0 C2.99 2.97 3.98 5.94 5 9 C2.525 8.01 2.525 8.01 0 7 C-0.2165625 7.928125 -0.2165625 7.928125 -0.4375 8.875 C-1 11 -1 11 -2 13 C-2.66 13 -3.32 13 -4 13 C-3.52140759 11.39566191 -3.04210442 9.79153584 -2.5625 8.1875 C-2.29566406 7.29417969 -2.02882813 6.40085937 -1.75390625 5.48046875 C-1.19612127 3.64526945 -0.60655425 1.81966274 0 0 Z " fill="#041915" transform="translate(497,430)"/>
<path d="M0 0 C3.16115776 1.36983503 3.9927092 1.9890638 6 5 C3.525 4.01 3.525 4.01 1 3 C-1.97 5.97 -4.94 8.94 -8 12 C-8.66 11.67 -9.32 11.34 -10 11 C-8.89718873 9.72799029 -7.79269231 8.45744147 -6.6875 7.1875 C-6.07261719 6.47980469 -5.45773438 5.77210938 -4.82421875 5.04296875 C-3.26665665 3.29863261 -1.67341125 1.63221959 0 0 Z " fill="#0A724F" transform="translate(144,555)"/>
<path d="M0 0 C0.66 0 1.32 0 2 0 C1.34 1.98 0.68 3.96 0 6 C0.66 6 1.32 6 2 6 C0.4169423 10.2742558 -2.50568404 12.26531794 -6 15 C-4.40109514 9.80355921 -2.25861997 4.93387858 0 0 Z " fill="#0B714F" transform="translate(84,637)"/>
<path d="M0 0 C0.33 0 0.66 0 1 0 C1 1.65 1 3.3 1 5 C3.97 5 6.94 5 10 5 C10 6.98 10 8.96 10 11 C9.01 11.495 9.01 11.495 8 12 C8 10.35 8 8.7 8 7 C6.2984375 7.0309375 6.2984375 7.0309375 4.5625 7.0625 C1 7 1 7 0 6 C-0.04080783 4.00041636 -0.04254356 1.99954746 0 0 Z " fill="#2C2F34" transform="translate(459,664)"/>
<path d="M0 0 C0.66 0.33 1.32 0.66 2 1 C0.75965588 2.32162881 -0.49268626 3.63200453 -1.75 4.9375 C-2.44609375 5.66839844 -3.1421875 6.39929688 -3.859375 7.15234375 C-6.00599725 9.00517646 -7.23532932 9.60771565 -10 10 C-3.84965831 2.51708428 -3.84965831 2.51708428 0 0 Z " fill="#1E2024" transform="translate(143,545)"/>
<path d="M0 0 C0.66 0 1.32 0 2 0 C2.66 1.65 3.32 3.3 4 5 C3.360625 5.28875 2.72125 5.5775 2.0625 5.875 C-0.15206079 6.82823451 -0.15206079 6.82823451 -1 9 C-1.66 9 -2.32 9 -3 9 C-2.01 6.03 -1.02 3.06 0 0 Z " fill="#A5A7A7" transform="translate(225,340)"/>
<path d="M0 0 C0.33 0.66 0.66 1.32 1 2 C-1.31 4.64 -3.62 7.28 -6 10 C-6.66 9.34 -7.32 8.68 -8 8 C-5.36 5.36 -2.72 2.72 0 0 Z " fill="#086F4C" transform="translate(111,589)"/>
<path d="M0 0 C0.33 0.99 0.66 1.98 1 3 C-0.61594832 5.04119788 -2.2856382 7.04072937 -4 9 C-4.33 9.99 -4.66 10.98 -5 12 C-5.875 9.9375 -5.875 9.9375 -6 7 C-4.26080867 4.40994275 -2.19602066 2.20875121 0 0 Z " fill="#16191D" transform="translate(524,660)"/>
<path d="M0 0 C2.83328987 2.83328987 3.7191375 4.35446828 5 8 C3.02 8.99 3.02 8.99 1 10 C0.67 6.7 0.34 3.4 0 0 Z " fill="#161617" transform="translate(475,581)"/>
<path d="M0 0 C0.66 0 1.32 0 2 0 C0.44499019 3.81684226 -2.03595495 6.19195732 -5 9 C-5.66 8.67 -6.32 8.34 -7 8 C-5.88200014 6.66079162 -4.75538103 5.32877444 -3.625 4 C-2.68527344 2.88625 -2.68527344 2.88625 -1.7265625 1.75 C-1.15679687 1.1725 -0.58703125 0.595 0 0 Z " fill="#09724F" transform="translate(286,525)"/>
<path d="M0 0 C0.33 0.99 0.66 1.98 1 3 C-0.98 4.98 -2.96 6.96 -5 9 C-5.66 8.67 -6.32 8.34 -7 8 C-4.69 5.36 -2.38 2.72 0 0 Z " fill="#07724F" transform="translate(278,534)"/>
<path d="M0 0 C0.99 0.33 1.98 0.66 3 1 C0.36 3.64 -2.28 6.28 -5 9 C-5.66 8.67 -6.32 8.34 -7 8 C-4.69 5.36 -2.38 2.72 0 0 Z " fill="#041613" transform="translate(310,487)"/>
<path d="M0 0 C0.33 0 0.66 0 1 0 C1 2.31 1 4.62 1 7 C-0.32 7.33 -1.64 7.66 -3 8 C-1.125 1.125 -1.125 1.125 0 0 Z " fill="#131313" transform="translate(750,584)"/>
<path d="M0 0 C-1.39332574 3.36720387 -2.9789286 4.9859524 -6 7 C-6 4 -6 4 -4.125 1.8125 C-2 0 -2 0 0 0 Z " fill="#A8ABAD" transform="translate(332,477)"/>
</svg>
