<?xml version="1.0" encoding="UTF-8"?>
<svg version="1.1" xmlns="http://www.w3.org/2000/svg" width="1024" height="1024">
<path d="M0 0 C337.92 0 675.84 0 1024 0 C1024 337.92 1024 675.84 1024 1024 C686.08 1024 348.16 1024 0 1024 C0 686.08 0 348.16 0 0 Z " fill="#02070E" transform="translate(0,0)"/>
<path d="M0 0 C2.33330713 2.94504688 4.11286465 5.93723762 5.828125 9.27734375 C6.64555176 10.86192383 6.64555176 10.86192383 7.47949219 12.47851562 C8.06375977 13.61998047 8.64802734 14.76144531 9.25 15.9375 C9.86843546 17.13886738 10.48725798 18.34003559 11.10644531 19.54101562 C12.40867462 22.06793977 13.70898894 24.5958354 15.0078125 27.12451172 C17.92589381 32.80401682 20.85867747 38.4759199 23.79202271 44.14755249 C24.75485873 46.00939536 25.71715118 47.87151857 26.67944336 49.73364258 C30.0291128 56.21243885 33.40027034 62.67893825 36.8125 69.125 C42.31615602 79.52930072 47.67473568 90.00843582 53.05175781 100.47851562 C53.83917523 102.01172773 54.62661009 103.54493087 55.4140625 105.078125 C55.80343994 105.83625488 56.19281738 106.59438477 56.59399414 107.37548828 C59.63586991 113.29602033 62.68871905 119.21080158 65.74902344 125.12182617 C66.95130672 127.4443306 68.15249134 129.76740412 69.35253906 132.09106445 C72.38628543 137.96353063 75.43136134 143.82955635 78.50007629 149.68383789 C80.09561208 152.73066684 81.68469709 155.78083517 83.2729187 158.83148193 C84.0436584 160.30800761 84.81731985 161.78301215 85.59402466 163.25640869 C86.67301133 165.30385783 87.74182864 167.35631952 88.80859375 169.41015625 C89.1327829 170.01919296 89.45697205 170.62822968 89.79098511 171.25572205 C91.48062743 174.53603852 92 176.19870529 92 180 C90.48174491 182.09806117 88.97204345 183.95804107 87.25 185.875 C86.75556396 186.44162354 86.26112793 187.00824707 85.75170898 187.59204102 C84.70319974 188.79356435 83.65093256 189.99181715 82.59521484 191.18701172 C80.55500777 193.50574109 78.54885982 195.85242049 76.54394531 198.20166016 C75.0442651 199.95886621 73.54033739 201.71234828 72.03515625 203.46484375 C69.02129009 206.97472388 66.01039195 210.48714002 63 214 C62.00001341 215.16667816 61.0000134 216.33334482 60 217.5 C59.505 218.0775 59.01 218.655 58.5 219.25 C50 229.16666667 41.5 239.08333333 33 249 C28.42217036 247.57303689 25.96892115 245.25538036 22.6875 241.8125 C18.92360071 237.92793862 15.0999413 234.21105528 10.984375 230.69921875 C7.89934527 228.05751022 4.89793221 225.32252419 1.8828125 222.6015625 C0.08460911 220.94277309 0.08460911 220.94277309 -2 220 C-2.25434814 220.58104492 -2.50869629 221.16208984 -2.77075195 221.76074219 C-4.13273495 224.24179642 -5.6431444 225.85518103 -7.66796875 227.828125 C-8.76141602 228.90513672 -8.76141602 228.90513672 -9.87695312 230.00390625 C-10.63943359 230.74511719 -11.40191406 231.48632812 -12.1875 232.25 C-17.1201267 237.06711853 -21.88270769 241.92044062 -26.3762207 247.15136719 C-28.79054322 249.90001402 -31.38167683 252.44759023 -34 255 C-37.92319426 258.86983397 -41.6542679 262.80818811 -45.2265625 267.0078125 C-47.39113418 269.43937981 -49.68429453 271.71211081 -52 274 C-54.88989828 276.85523683 -57.68451745 279.71500196 -60.3125 282.8125 C-64.04809522 287.18696186 -68.14545889 291.17200015 -72.23266602 295.21313477 C-75.75399217 298.71003201 -79.08931277 302.29231329 -82.30078125 306.078125 C-85.67835858 309.89828143 -89.35883405 313.43314356 -93 317 C-99.05689692 312.84330603 -104.06610462 308.0598575 -109.19091797 302.84033203 C-113.28827702 298.67566523 -117.52665013 294.76016366 -122 291 C-126.90008227 295.10108796 -131.46864395 299.37459555 -135.9375 303.9375 C-140.11991403 308.16321251 -144.30766307 312.29212934 -148.84765625 316.13671875 C-151.96305459 318.83371513 -154.97682698 321.63795006 -158 324.4375 C-158.58918213 324.98293457 -159.17836426 325.52836914 -159.78540039 326.09033203 C-161.19103297 327.39272841 -162.59562716 328.69624534 -164 330 C-164 326.95346098 -163.63950826 325.87267386 -162.35743713 323.20782471 C-161.97439139 322.40688763 -161.59134565 321.60595055 -161.19669247 320.78074265 C-160.75481374 319.8750214 -160.31293501 318.96930016 -159.85766602 318.03613281 C-159.37789842 317.04351063 -158.89813082 316.05088844 -158.40382481 315.0281868 C-150.02820171 297.7868448 -141.40525599 280.66518075 -132.82878947 263.52325344 C-130.19776389 258.26376811 -127.56872126 253.00329162 -124.93934631 247.74298096 C-120.52895208 238.92038354 -116.11689075 230.09862136 -111.70385742 221.27734375 C-106.62712771 211.12933057 -101.55328774 200.97987654 -96.48093599 190.82967448 C-92.09566481 182.05457175 -87.70881287 173.28026061 -83.32067496 164.50659108 C-80.71292354 159.29263423 -78.10568842 154.07842111 -75.49989128 148.86348724 C-73.04987744 143.9605378 -70.59785835 139.05859609 -68.1443882 134.15737534 C-67.25291984 132.37574315 -66.36210547 130.59378353 -65.47205353 128.81144333 C-60.56818208 118.99253073 -55.57428925 109.23011982 -50.4430933 99.52790439 C-47.44459829 93.85715457 -44.51175065 88.15871034 -41.65795898 82.41357422 C-41.20944077 81.51507751 -40.76092255 80.61658081 -40.29881287 79.69085693 C-39.34971023 77.78891776 -38.40152839 75.88651882 -37.45425224 73.98366928 C-35.9555437 70.9732352 -34.45416115 67.96414715 -32.9521637 64.95535278 C-29.77831474 58.59637821 -26.60768683 52.23580089 -23.4375 45.875 C-19.72895178 38.43426541 -16.01907078 30.99420114 -12.30586433 23.55578995 C-10.82568215 20.58893918 -9.34790707 17.6208976 -7.870224 14.65280151 C-6.97276281 12.85425083 -6.07519115 11.05575526 -5.17749023 9.25732422 C-4.76666199 8.4305014 -4.35583374 7.60367859 -3.93255615 6.75180054 C-1.11384311 1.11384311 -1.11384311 1.11384311 0 0 Z " fill="#B0B0B0" transform="translate(489,278)"/>
<path d="M0 0 C-1.33304401 9.30967882 -3.44341124 18.35283937 -5.71292114 27.46670532 C-6.72944412 31.54971602 -7.73152647 35.63626926 -8.734375 39.72265625 C-8.93116348 40.52323959 -9.12795197 41.32382294 -9.33070374 42.14866638 C-11.68151778 51.73682637 -13.86643196 61.36141877 -16 71 C-19.99282941 71 -21.15331592 69.52191924 -24.1875 67 C-25.08855469 66.2575 -25.98960937 65.515 -26.91796875 64.75 C-27.94857422 63.88375 -27.94857422 63.88375 -29 63 C-32.1623716 64.37196165 -33.9936218 65.8565122 -36.1875 68.5 C-38.85967935 71.66217386 -41.58196786 74.75625017 -44.375 77.8125 C-47.57652433 81.35160002 -50.63146063 84.97103106 -53.625 88.6875 C-56.12973231 91.78591453 -58.6339111 94.73296947 -61.5 97.5 C-64.30525702 100.20896674 -66.74629532 103.08335539 -69.1875 106.125 C-74.0833737 112.20927382 -79.36756617 117.8756463 -84.68847656 123.58398438 C-88.49062013 127.68905376 -92.10879896 131.95381885 -95.73828125 136.2109375 C-101.32016565 142.7530105 -106.95707016 149.215501 -112.76953125 155.5546875 C-115.27866515 158.3055068 -117.72421625 161.10584549 -120.1640625 163.91796875 C-122.36632979 166.41543357 -124.62140035 168.861277 -126.875 171.3125 C-130.14529473 174.89261212 -133.28026617 178.52916237 -136.3125 182.3125 C-140.38813044 187.36916714 -144.7536296 192.08348303 -149.20239258 196.80786133 C-152.44533642 200.27044112 -155.53422177 203.79277721 -158.5 207.5 C-162.54720682 212.55527494 -166.88446333 217.27819359 -171.32177734 221.98876953 C-174.90432947 225.79436819 -178.34750548 229.67385394 -181.6328125 233.7421875 C-183 235 -183 235 -186 235 C-188.09375 233.34765625 -188.09375 233.34765625 -190.5 231.0625 C-194.07600805 227.74117857 -197.69884251 224.5614436 -201.5 221.5 C-206.12721558 217.77197383 -210.49886317 213.83962902 -214.80859375 209.75 C-217.59361621 207.51901253 -217.59361621 207.51901253 -221 207 C-223.61043937 208.8963785 -223.61043937 208.8963785 -226.17578125 211.65234375 C-226.66402878 212.14529434 -227.15227631 212.63824493 -227.65531921 213.14613342 C-229.21974493 214.73193086 -230.76578017 216.33444827 -232.3125 217.9375 C-233.34199559 218.98350897 -234.37258387 220.0284437 -235.40429688 221.07226562 C-240.24457411 225.99238048 -244.94870537 230.99859001 -249.44604492 236.23657227 C-252.48752601 239.68804404 -255.81461287 242.85561986 -259.10546875 246.06640625 C-261.99924039 248.91813763 -264.75414686 251.82716427 -267.40625 254.90625 C-271.69345165 259.86762954 -276.36084853 264.41140699 -281.0390625 269 C-284.3105355 272.23357949 -287.47895846 275.49331315 -290.48046875 278.98046875 C-294.21159337 283.31314852 -298.23370849 287.30931167 -302.3125 291.3125 C-303.72758439 292.70206438 -305.14044599 294.093897 -306.55078125 295.48828125 C-307.47370972 296.39380737 -307.47370972 296.39380737 -308.4152832 297.31762695 C-310.19836134 299.11691651 -310.19836134 299.11691651 -312 302 C-316.34920758 300.34265633 -319.09139154 297.08850157 -322.25 293.8125 C-326.47790227 289.49937686 -330.73685755 285.3375952 -335.3515625 281.43359375 C-336.94821571 280.04503515 -338.41154882 278.5893956 -339.875 277.0625 C-341.74563699 274.76784154 -341.74563699 274.76784154 -344 275 C-345.56648858 276.58737399 -345.56648858 276.58737399 -347.1875 278.625 C-349.4835869 281.33466777 -351.75017804 283.75296716 -354.5 286 C-357.03025253 288.07308561 -359.16521788 290.24913176 -361.28015137 292.74279785 C-364.70425268 296.70412043 -368.30067116 300.4298571 -372.01757812 304.11523438 C-372.68035263 304.77654861 -373.34312714 305.43786285 -374.02598572 306.11921692 C-375.45109348 307.54054857 -376.87735418 308.96072501 -378.30467224 310.37983704 C-380.56950817 312.63179056 -382.8311015 314.88695696 -385.09191895 317.14294434 C-390.70489872 322.74262673 -396.32332959 328.33682943 -401.94158936 333.93121338 C-406.69932059 338.66914707 -411.45495322 343.40916875 -416.20787048 348.15193176 C-418.42530078 350.36292687 -420.64574414 352.57086441 -422.86633301 354.77868652 C-424.23851207 356.14722973 -425.61054907 357.51591541 -426.98242188 358.88476562 C-427.59145859 359.48863602 -428.2004953 360.09250641 -428.82798767 360.7146759 C-432.51481294 364.40105312 -435.97303582 368.21269347 -439.32483673 372.20717621 C-441.07254575 374.07764123 -442.9124442 375.52596356 -445 377 C-443.41918262 371.79162275 -441.22555203 367.01660892 -438.875 362.125 C-438.47394043 361.28420898 -438.07288086 360.44341797 -437.65966797 359.57714844 C-434.89259764 353.79850137 -432.04963196 348.06122001 -429.16162109 342.34228516 C-426.18975 336.43490948 -423.34298233 330.4702629 -420.5 324.5 C-419.1003168 321.57371684 -417.69967064 318.6478963 -416.29882812 315.72216797 C-415.47553842 313.99666418 -414.65605519 312.26933478 -413.84179688 310.53955078 C-412.82258233 308.37487598 -411.78826093 306.21808781 -410.75 304.0625 C-410.18796875 302.87785156 -409.6259375 301.69320313 -409.046875 300.47265625 C-404.09852681 291.35496239 -395.32870076 284.25241796 -388.02734375 277.06640625 C-387.22425781 276.27105469 -386.42117188 275.47570312 -385.59375 274.65625 C-384.87896484 273.95306641 -384.16417969 273.24988281 -383.42773438 272.52539062 C-381.43365345 270.45109727 -379.54581778 268.34350563 -377.66577148 266.16796875 C-374.18580913 262.1618183 -370.52063061 258.39162195 -366.75390625 254.65625 C-366.09792953 254.00168823 -365.44195282 253.34712646 -364.76609802 252.67272949 C-362.70059855 250.61276177 -360.63162405 248.55632634 -358.5625 246.5 C-357.14885566 245.0913795 -355.73544214 243.68252733 -354.32226562 242.2734375 C-350.88416851 238.84627867 -347.44295344 235.42227981 -344 232 C-340.58177226 234.21598563 -337.36336559 236.39305322 -334.4140625 239.20703125 C-333.79668213 239.79081543 -333.17930176 240.37459961 -332.54321289 240.97607422 C-331.59369751 241.88510498 -331.59369751 241.88510498 -330.625 242.8125 C-329.30426078 244.06212374 -327.98265385 245.31083108 -326.66015625 246.55859375 C-326.03125488 247.15269043 -325.40235352 247.74678711 -324.75439453 248.35888672 C-321.58029886 251.32803104 -318.31153916 254.18572071 -315 257 C-311.79172126 255.60020819 -309.78683875 253.97223067 -307.42578125 251.40234375 C-306.76247803 250.68747803 -306.0991748 249.9726123 -305.41577148 249.23608398 C-304.72169189 248.47755127 -304.0276123 247.71901855 -303.3125 246.9375 C-301.87349433 245.38439815 -300.43339885 243.83230529 -298.9921875 242.28125 C-298.3022168 241.53746094 -297.61224609 240.79367187 -296.90136719 240.02734375 C-294.63298547 237.60866863 -292.30249849 235.26158156 -289.9375 232.9375 C-287.39967231 230.43783514 -285.00009669 227.89654183 -282.6875 225.1875 C-279.6249973 221.61101083 -276.34718399 218.30611424 -273 215 C-269.77788784 211.81713403 -266.60947423 208.65309734 -263.6875 205.1875 C-259.61341583 200.3891342 -255.08351998 196.03325823 -250.5925293 191.62963867 C-247.46578902 188.54526725 -244.45478755 185.42402563 -241.58984375 182.09375 C-237.63355949 177.50539666 -233.36849864 173.25803121 -229.0625 169 C-228.28326172 168.22527344 -227.50402344 167.45054687 -226.70117188 166.65234375 C-224.8030758 164.76589243 -222.90266851 162.88183755 -221 161 C-217.53256529 162.64388508 -215.07690937 164.57215868 -212.25 167.1875 C-211.36828125 167.99574219 -210.4865625 168.80398438 -209.578125 169.63671875 C-208.72734375 170.41660156 -207.8765625 171.19648437 -207 172 C-205.03633837 173.73112276 -203.06111808 175.44732913 -201.078125 177.15625 C-199.49566331 178.56023857 -197.94982407 180.00562302 -196.421875 181.46875 C-195.54015625 182.3040625 -194.6584375 183.139375 -193.75 184 C-192.94046875 184.78375 -192.1309375 185.5675 -191.296875 186.375 C-189.19198079 188.19051544 -189.19198079 188.19051544 -186.96484375 188.0234375 C-184.30591788 186.63847015 -182.77531427 184.89171083 -180.8125 182.625 C-179.63494141 181.27341797 -179.63494141 181.27341797 -178.43359375 179.89453125 C-175.27880776 176.14220955 -172.19900546 172.33181471 -169.1171875 168.51953125 C-166.82443136 165.79106684 -164.3760667 163.34361979 -161.8125 160.875 C-159.54951427 158.53398027 -157.54051677 156.03685869 -155.5 153.5 C-152.95506068 150.33602139 -150.4247901 147.31646455 -147.5 144.5 C-144.71494578 141.81032435 -142.29501384 138.96031728 -139.875 135.9375 C-135.18099608 130.10214581 -130.11536098 124.66883492 -124.99609375 119.20703125 C-120.60757219 114.52405056 -116.42880328 109.67583043 -112.265625 104.79296875 C-111.23978547 103.59097329 -110.21373742 102.38915577 -109.1875 101.1875 C-108.41140381 100.27810669 -108.41140381 100.27810669 -107.61962891 99.3503418 C-104.41484922 95.60909899 -101.14782948 91.93876164 -97.8125 88.3125 C-94.64169258 84.85984304 -91.61964969 81.34469034 -88.6875 77.6875 C-85.13213062 73.2763249 -81.38047221 69.12195363 -77.5 65 C-72.75594097 59.95935147 -68.27006739 54.81891012 -63.94140625 49.4140625 C-62.17107012 47.21271899 -60.3543841 45.06806896 -58.5 42.9375 C-56.045968 40.29120612 -56.045968 40.29120612 -55 38 C-55.56203125 37.75507813 -56.1240625 37.51015625 -56.703125 37.2578125 C-59.41865854 35.77073461 -61.46391438 33.95937218 -63.75 31.875 C-64.54921875 31.15054687 -65.3484375 30.42609375 -66.171875 29.6796875 C-66.77515625 29.12539063 -67.3784375 28.57109375 -68 28 C-65.18484285 25.18484285 -61.75347728 24.11689892 -58.1171875 22.65625 C-56.91894852 22.16771545 -56.91894852 22.16771545 -55.69650269 21.66931152 C-53.09121944 20.6081715 -50.4831816 19.55399364 -47.875 18.5 C-45.20274575 17.41462207 -42.5311321 16.3276796 -39.85961914 15.24047852 C-38.08364192 14.51775197 -36.30743738 13.79558378 -34.53100586 13.07397461 C-26.26023461 9.71047095 -18.02646905 6.26146949 -9.81982422 2.74414062 C-8.94600098 2.37482422 -8.07217773 2.00550781 -7.171875 1.625 C-6.4303418 1.30789063 -5.68880859 0.99078125 -4.92480469 0.6640625 C-3 0 -3 0 0 0 Z " fill="#00864B" transform="translate(709,357)"/>
<path d="M0 0 C0.33 0 0.66 0 1 0 C0.98948325 1.05186461 0.9789665 2.10372923 0.96813107 3.18746853 C0.71467426 28.93551966 0.5616559 54.6827312 0.51034451 80.43199825 C0.48326989 92.88505206 0.42509237 105.33642609 0.2902832 117.78881836 C0.17268652 128.65892051 0.1169183 139.52740318 0.13146263 150.39815909 C0.13708948 156.14015847 0.11444265 161.87850641 0.01739311 167.61976433 C-0.42735245 195.31671461 1.62166088 216.0203531 16.85144234 239.56849861 C20.41793199 245.14178537 23.28265604 251.09369555 26.25 257 C27.37195844 259.16824323 28.49655409 261.33512604 29.625 263.5 C31.67341764 267.44332388 33.7191455 271.38801469 35.76104736 275.3347168 C37.25611363 278.22379274 38.75329679 281.11177184 40.25 284 C40.79946289 285.06347656 41.34892578 286.12695312 41.91503906 287.22265625 C42.6763916 288.69025391 42.6763916 288.69025391 43.453125 290.1875 C43.89817383 291.04730469 44.34322266 291.90710938 44.80175781 292.79296875 C46.0545499 295.17985257 46.0545499 295.17985257 48 298 C48 298.99 48 299.98 48 301 C15.66 301 -16.68 301 -50 301 C-50.17640977 269.79718187 -50.32410429 238.5948454 -50.40852264 207.39168414 C-50.41852813 203.7067599 -50.42888272 200.02183672 -50.43945312 196.33691406 C-50.44155161 195.60332131 -50.44365009 194.86972856 -50.44581217 194.11390573 C-50.48061002 182.24013639 -50.54367924 170.36667734 -50.61722237 158.493092 C-50.69207072 146.307019 -50.73647775 134.12110836 -50.75270796 121.93481493 C-50.76367782 114.41677869 -50.79830533 106.89961949 -50.86333174 99.38185328 C-50.91067388 93.61430612 -50.91563259 87.84731922 -50.90486145 82.07961655 C-50.90706224 79.71568784 -50.92297499 77.35172592 -50.9536438 74.98799515 C-50.99349842 71.75782832 -50.98386757 68.53140221 -50.96203613 65.30114746 C-50.98533886 64.36727691 -51.0086416 63.43340636 -51.03265047 62.47123671 C-50.93431297 57.08253879 -49.9964682 54.44607441 -46.14299774 50.58664703 C-44.7660514 49.38643241 -43.38521175 48.19066568 -42 47 C-40.89443737 45.79078825 -39.80722536 44.56419339 -38.75 43.3125 C-35.58230142 39.62896059 -32.30464085 36.06009411 -29 32.5 C-25.21596881 28.41989777 -21.48635826 24.30853744 -17.84765625 20.09765625 C-14.9519576 16.8101506 -11.97352937 13.59786257 -8.99389648 10.38647461 C-6.6599976 7.85946052 -4.40221489 5.29576104 -2.2265625 2.6328125 C-1.12441406 1.32957031 -1.12441406 1.32957031 0 0 Z " fill="#00854A" transform="translate(678,438)"/>
<path d="M0 0 C0.33 0 0.66 0 1 0 C1 72.6 1 145.2 1 220 C-15.5 220 -32 220 -49 220 C-49.1128367 198.44263506 -49.20495475 176.88550894 -49.25906086 155.32792377 C-49.28485021 145.31852464 -49.32001472 135.30932191 -49.37719727 125.30004883 C-49.42700983 116.57666891 -49.4592857 107.85343122 -49.47044247 99.12991303 C-49.47696488 94.5101541 -49.49230944 89.89080208 -49.52865028 85.27117348 C-49.56257594 80.92335668 -49.57305999 76.57611461 -49.56553841 72.22817802 C-49.5669145 70.63220217 -49.57686781 69.0362072 -49.59602737 67.44034576 C-49.62091412 65.260616 -49.61492413 63.08305465 -49.60127258 60.90327454 C-49.60588155 59.68374242 -49.61049051 58.4642103 -49.61523914 57.20772266 C-48.82655093 53.09567437 -47.1422323 51.66669587 -44 49 C-41.68509783 46.58418185 -39.40589892 44.13542127 -37.125 41.6875 C-36.50004639 41.0174292 -35.87509277 40.3473584 -35.23120117 39.65698242 C-31.67579835 35.83391368 -28.17522836 31.97703751 -24.76953125 28.01953125 C-22.39115349 25.30513544 -19.94480743 22.65437404 -17.5 20 C-12.23690665 14.2802546 -7.04917073 8.5153222 -2.125 2.5 C-1.073125 1.2625 -1.073125 1.2625 0 0 Z " fill="#00854B" transform="translate(607,518)"/>
<path d="M0 0 C1.25855641 0.93443374 2.51578048 1.87066209 3.77246094 2.80761719 C4.82285553 3.5893631 4.82285553 3.5893631 5.89447021 4.38690186 C9.13554675 6.86997029 12.18939226 9.55006718 15.25 12.25 C20.0678478 16.46098487 24.90245004 20.6466661 29.8125 24.75 C30.76769531 25.54921875 31.72289062 26.3484375 32.70703125 27.171875 C34.85424354 29.0137474 34.85424354 29.0137474 37 30 C37.28875 29.360625 37.5775 28.72125 37.875 28.0625 C39 26 39 26 41 25 C41 69.88 41 114.76 41 161 C21.2 161 1.4 161 -19 161 C-19.43063149 142.81340346 -19.77985383 124.63122449 -19.98443127 106.44092846 C-20.08198922 97.99284754 -20.21470679 89.54818154 -20.43334961 81.10229492 C-20.62406509 73.73162537 -20.74560731 66.36342954 -20.7876814 58.99036103 C-20.81224623 55.09268408 -20.8689562 51.20207591 -21.00887108 47.30669212 C-21.93361846 20.56439113 -21.93361846 20.56439113 -12.07241535 9.97608662 C-8.24398506 6.36827597 -4.28422658 3.05261113 0 0 Z " fill="#00854A" transform="translate(490,578)"/>
<path d="M0 0 C0 37.95 0 75.9 0 115 C-19.8 115 -39.6 115 -60 115 C-60 91.9 -60 68.8 -60 45 C-57.03 46.98 -54.06 48.96 -51 51 C-48.8092214 48.83656815 -46.62237594 46.66938036 -44.4375 44.5 C-43.82841797 43.89929688 -43.21933594 43.29859375 -42.59179688 42.6796875 C-39.59507668 39.69882297 -36.6998502 36.69215046 -33.96484375 33.46875 C-28.67864379 27.34577293 -22.86238484 21.71373436 -17.13671875 16.00634766 C-15.10558715 13.98063898 -13.07993401 11.94955941 -11.0546875 9.91796875 C-9.76855024 8.63249118 -8.48210341 7.34732325 -7.1953125 6.0625 C-6.58809357 5.45325684 -5.98087463 4.84401367 -5.35525513 4.21630859 C-1.11499023 0 -1.11499023 0 0 0 Z " fill="#00864B" transform="translate(449,623)"/>
<path d="M0 0 C0 29.04 0 58.08 0 88 C-29.37 88 -58.74 88 -89 88 C-82.24826207 80.12297241 -82.24826207 80.12297241 -79.60009766 77.47070312 C-78.70854477 76.574422 -78.70854477 76.574422 -77.79898071 75.66003418 C-77.1769577 75.0400354 -76.55493469 74.42003662 -75.9140625 73.78125 C-75.25344818 73.11967896 -74.59283386 72.45810791 -73.91220093 71.77648926 C-72.52342439 70.38703655 -71.13340162 68.99882844 -69.7421875 67.61181641 C-67.63427071 65.50924719 -65.531735 63.40140396 -63.4296875 61.29296875 C-62.0706329 59.9345752 -60.711268 58.57649202 -59.3515625 57.21875 C-58.73358795 56.59875122 -58.1156134 55.97875244 -57.47891235 55.33996582 C-54.46320841 52.34008743 -51.40282536 49.45064948 -48.17504883 46.67944336 C-43.15354984 42.33577027 -38.51861237 37.62436561 -33.84765625 32.91015625 C-32.89771115 31.95579558 -31.94746448 31.001735 -30.99693298 30.04795837 C-28.01592784 27.05564444 -25.038943 24.05935098 -22.0625 21.0625 C-18.58655327 17.56293384 -15.10896828 14.06502705 -11.62719536 10.57125664 C-10.23746096 9.17503012 -8.85077621 7.77577029 -7.46412659 6.3764801 C-6.21163368 5.11903236 -6.21163368 5.11903236 -4.93383789 3.83618164 C-4.19629776 3.09340469 -3.45875763 2.35062775 -2.6988678 1.58534241 C-1 0 -1 0 0 0 Z " fill="#00874C" transform="translate(366,650)"/>
<path d="M0 0 C0.33 0.66 0.66 1.32 1 2 C0.11940577 3.97404732 -0.8551165 5.90668084 -1.875 7.8125 C-4.18383846 12.10392972 -4.18383846 12.10392972 -5.53515625 16.7421875 C-6.22274376 20.08189826 -8.29013886 21.12394229 -11 23 C-9.44347945 17.6462535 -7.0182491 12.99849053 -4.375 8.125 C-3.95476562 7.34125 -3.53453125 6.5575 -3.1015625 5.75 C-2.0718978 3.83107943 -1.03652433 1.91522397 0 0 Z " fill="#009956" transform="translate(275,711)"/>
<path d="M0 0 C0 4.25491168 -2.47159742 6.07313316 -5.25 9 C-5.98669922 9.80050781 -5.98669922 9.80050781 -6.73828125 10.6171875 C-9.31357494 13.37790233 -11.88308798 15.8626889 -15 18 C-13.66465724 15.05886531 -12.17535119 12.89154831 -9.9609375 10.546875 C-9.38085938 9.928125 -8.80078125 9.309375 -8.203125 8.671875 C-7.59984375 8.03765625 -6.9965625 7.4034375 -6.375 6.75 C-5.76398437 6.1003125 -5.15296875 5.450625 -4.5234375 4.78125 C-3.01971926 3.18354937 -1.51184263 1.59000851 0 0 Z " fill="#009552" transform="translate(671,446)"/>
<path d="M0 0 C0.66 0 1.32 0 2 0 C3.17154293 2.28929053 4.33738074 4.58118362 5.5 6.875 C5.83386719 7.52597656 6.16773438 8.17695313 6.51171875 8.84765625 C9 13.7734375 9 13.7734375 9 16 C8.34 16 7.68 16 7 16 C5.82845707 13.71070947 4.66261926 11.41881638 3.5 9.125 C3.16613281 8.47402344 2.83226562 7.82304687 2.48828125 7.15234375 C0 2.2265625 0 2.2265625 0 0 Z " fill="#141618" transform="translate(560,413)"/>
<path d="M0 0 C3 1 3 1 4.38671875 3.21484375 C4.81597656 4.11332031 5.24523437 5.01179688 5.6875 5.9375 C6.12449219 6.83339844 6.56148438 7.72929687 7.01171875 8.65234375 C8 11 8 11 8 13 C7.34 13 6.68 13 6 13 C4.02 8.71 2.04 4.42 0 0 Z " fill="#131416" transform="translate(502,302)"/>
<path d="M0 0 C0.99 0.33 1.98 0.66 3 1 C-0.96 4.465 -0.96 4.465 -5 8 C-5.66 7.67 -6.32 7.34 -7 7 C-4.69 4.69 -2.38 2.38 0 0 Z " fill="#111316" transform="translate(474,512)"/>
<path d="M0 0 C-1.44253657 3.36591866 -3.33264727 5.51047079 -6 8 C-6.99 7.67 -7.98 7.34 -9 7 C-7.88121617 5.82737096 -6.75476949 4.66204862 -5.625 3.5 C-4.68527344 2.52546875 -4.68527344 2.52546875 -3.7265625 1.53125 C-2 0 -2 0 0 0 Z " fill="#101215" transform="translate(440,550)"/>
<path d="M0 0 C0 0.99 0 1.98 0 3 C-0.99 3.66 -1.98 4.32 -3 5 C-1.125 1.125 -1.125 1.125 0 0 Z M-5 6 C-4.67 6.99 -4.34 7.98 -4 9 C-5.65 9.33 -7.3 9.66 -9 10 C-7.68 8.68 -6.36 7.36 -5 6 Z " fill="#131315" transform="translate(529,518)"/>
<path d="M0 0 C0.33 0.66 0.66 1.32 1 2 C1.66 2.33 2.32 2.66 3 3 C0.69 4.98 -1.62 6.96 -4 9 C-2.94124926 5.59687262 -1.99097846 2.98646769 0 0 Z " fill="#C7C9C9" transform="translate(328,599)"/>
<path d="M0 0 C-1.39332574 3.36720387 -2.9789286 4.9859524 -6 7 C-6 4 -6 4 -4.125 1.8125 C-2 0 -2 0 0 0 Z " fill="#0B0E12" transform="translate(346,589)"/>
<path d="M0 0 C0.66 0.33 1.32 0.66 2 1 C0.515 2.485 0.515 2.485 -1 4 C-0.01 5.32 0.98 6.64 2 8 C-1.36720387 6.60667426 -2.9859524 5.0210714 -5 2 C-2.625 0.9375 -2.625 0.9375 0 0 Z " fill="#009755" transform="translate(646,382)"/>
<path d="M0 0 C-0.66 3.3 -1.32 6.6 -2 10 C-2.92538169 6.29847322 -3.08174162 5.36541838 -2 2 C-3.32 2.33 -4.64 2.66 -6 3 C-3.375 0 -3.375 0 0 0 Z " fill="#009854" transform="translate(709,357)"/>
</svg>
